<svg xmlns="http://www.w3.org/2000/svg" xmlns:xlink="http://www.w3.org/1999/xlink" width="500" zoomAndPan="magnify" viewBox="0 0 375 374.999991" height="500" preserveAspectRatio="xMidYMid meet" version="1.0"><defs><g/><clipPath id="ff5a5a7fd2"><path d="M 67.992188 64.453125 L 307.007812 64.453125 L 307.007812 303.46875 L 67.992188 303.46875 Z M 67.992188 64.453125 " clip-rule="nonzero"/></clipPath><clipPath id="9c654a9a7c"><path d="M 187.5 64.453125 C 121.496094 64.453125 67.992188 117.960938 67.992188 183.960938 C 67.992188 249.964844 121.496094 303.46875 187.5 303.46875 C 253.5 303.46875 307.007812 249.964844 307.007812 183.960938 C 307.007812 117.960938 253.5 64.453125 187.5 64.453125 Z M 187.5 64.453125 " clip-rule="nonzero"/></clipPath><clipPath id="c57c4a536f"><path d="M 73.269531 69.183594 L 301.703125 69.183594 L 301.703125 297.617188 L 73.269531 297.617188 Z M 73.269531 69.183594 " clip-rule="nonzero"/></clipPath><clipPath id="c6603af992"><path d="M 187.488281 69.183594 C 124.40625 69.183594 73.269531 120.316406 73.269531 183.398438 C 73.269531 246.480469 124.40625 297.617188 187.488281 297.617188 C 250.566406 297.617188 301.703125 246.480469 301.703125 183.398438 C 301.703125 120.316406 250.566406 69.183594 187.488281 69.183594 Z M 187.488281 69.183594 " clip-rule="nonzero"/></clipPath><clipPath id="401dac9ca7"><path d="M 0 140.984375 L 375 140.984375 L 375 213.773438 L 0 213.773438 Z M 0 140.984375 " clip-rule="nonzero"/></clipPath><clipPath id="ffeedb473b"><path d="M 0 0.984375 L 375 0.984375 L 375 73.773438 L 0 73.773438 Z M 0 0.984375 " clip-rule="nonzero"/></clipPath><clipPath id="3a1836afb9"><rect x="0" width="375" y="0" height="74"/></clipPath><clipPath id="91179d6b8f"><path d="M 107.410156 107.410156 L 267.589844 107.410156 L 267.589844 267.589844 L 107.410156 267.589844 Z M 107.410156 107.410156 " clip-rule="nonzero"/></clipPath><clipPath id="ab29db5622"><path d="M 187.5 107.410156 C 143.269531 107.410156 107.410156 143.269531 107.410156 187.5 C 107.410156 231.730469 143.269531 267.589844 187.5 267.589844 C 231.730469 267.589844 267.589844 231.730469 267.589844 187.5 C 267.589844 143.269531 231.730469 107.410156 187.5 107.410156 Z M 187.5 107.410156 " clip-rule="nonzero"/></clipPath><clipPath id="d09b7e302f"><path d="M 0.410156 0.410156 L 160.589844 0.410156 L 160.589844 160.589844 L 0.410156 160.589844 Z M 0.410156 0.410156 " clip-rule="nonzero"/></clipPath><clipPath id="57f68ea0ca"><path d="M 80.5 0.410156 C 36.269531 0.410156 0.410156 36.269531 0.410156 80.5 C 0.410156 124.730469 36.269531 160.589844 80.5 160.589844 C 124.730469 160.589844 160.589844 124.730469 160.589844 80.5 C 160.589844 36.269531 124.730469 0.410156 80.5 0.410156 Z M 80.5 0.410156 " clip-rule="nonzero"/></clipPath><clipPath id="96e3aab0c6"><rect x="0" width="161" y="0" height="161"/></clipPath><clipPath id="d0985381d8"><rect x="0" width="219" y="0" height="89"/></clipPath><clipPath id="f1654100fa"><rect x="0" width="219" y="0" height="96"/></clipPath><clipPath id="fd5141e9b4"><path d="M 182.664062 110.605469 L 193.164062 110.605469 L 193.164062 121 L 182.664062 121 Z M 182.664062 110.605469 " clip-rule="nonzero"/></clipPath><clipPath id="b538db8650"><path d="M 163.632812 115.742188 L 174.132812 115.742188 L 174.132812 126.242188 L 163.632812 126.242188 Z M 163.632812 115.742188 " clip-rule="nonzero"/></clipPath><clipPath id="a05699fb68"><path d="M 163.632812 115.742188 L 174.132812 115.742188 L 174.132812 126 L 163.632812 126 Z M 163.632812 115.742188 " clip-rule="nonzero"/></clipPath><clipPath id="02e05ee883"><path d="M 201.699219 115.742188 L 212.199219 115.742188 L 212.199219 126.242188 L 201.699219 126.242188 Z M 201.699219 115.742188 " clip-rule="nonzero"/></clipPath><clipPath id="94e3188713"><path d="M 201.699219 115.742188 L 212.199219 115.742188 L 212.199219 126 L 201.699219 126 Z M 201.699219 115.742188 " clip-rule="nonzero"/></clipPath></defs><rect x="-37.5" width="450" fill="#ffffff" y="-37.499999" height="449.999989" fill-opacity="1"/><rect x="-37.5" width="450" fill="#ffffff" y="-37.499999" height="449.999989" fill-opacity="1"/><g clip-path="url(#ff5a5a7fd2)"><g clip-path="url(#9c654a9a7c)"><path stroke-linecap="butt" transform="matrix(0.75, 0, 0, 0.75, 67.991806, 64.454065)" fill="none" stroke-linejoin="miter" d="M 159.34427 -0.00125276 C 71.339056 -0.00125276 0.000509153 71.342502 0.000509153 159.342508 C 0.000509153 247.347722 71.339056 318.686268 159.34427 318.686268 C 247.344275 318.686268 318.68803 247.347722 318.68803 159.342508 C 318.68803 71.342502 247.344275 -0.00125276 159.34427 -0.00125276 Z M 159.34427 -0.00125276 " stroke="#8ca87c" stroke-width="4" stroke-opacity="1" stroke-miterlimit="4"/></g></g><g clip-path="url(#c57c4a536f)"><g clip-path="url(#c6603af992)"><path stroke-linecap="butt" transform="matrix(0.75, 0, 0, 0.75, 73.270137, 69.181673)" fill="none" stroke-linejoin="miter" d="M 152.290869 0.00256092 C 68.181488 0.00256092 -0.000808052 68.179649 -0.000808052 152.289029 C -0.000808052 236.39841 68.181488 304.580706 152.290869 304.580706 C 236.395041 304.580706 304.577337 236.39841 304.577337 152.289029 C 304.577337 68.179649 236.395041 0.00256092 152.290869 0.00256092 Z M 152.290869 0.00256092 " stroke="#8ca87c" stroke-width="2" stroke-opacity="1" stroke-miterlimit="4"/></g></g><g clip-path="url(#401dac9ca7)"><g transform="matrix(1, 0, 0, 1, 0, 140)"><g clip-path="url(#3a1836afb9)"><g clip-path="url(#ffeedb473b)"><path fill="#ffffff" d="M 0 0.984375 L 375.03125 0.984375 L 375.03125 73.773438 L 0 73.773438 Z M 0 0.984375 " fill-opacity="1" fill-rule="nonzero"/></g></g></g></g><g fill="#146614" fill-opacity="1"><g transform="translate(129.253406, 115.03367)"><g><path d="M -2.640625 -7.90625 L -0.453125 -9.71875 L 0.8125 -8.171875 L -1.375 -6.359375 L 2.3125 -1.90625 L 0.609375 -0.5 L -8.3125 -11.296875 L -3.8125 -15.015625 L -2.53125 -13.46875 L -5.328125 -11.15625 Z M -2.640625 -7.90625 "/></g></g></g><g fill="#146614" fill-opacity="1"><g transform="translate(137.328002, 108.594898)"><g><path d="M 4.5625 -2.90625 C 4.476562 -2.96875 4.40625 -3.023438 4.34375 -3.078125 C 4.28125 -3.128906 4.207031 -3.195312 4.125 -3.28125 C 4.050781 -3.375 3.957031 -3.5 3.84375 -3.65625 C 3.738281 -3.8125 3.613281 -4.007812 3.46875 -4.25 L 2.28125 -6.109375 C 1.925781 -6.660156 1.582031 -6.984375 1.25 -7.078125 C 0.914062 -7.179688 0.535156 -7.097656 0.109375 -6.828125 L -0.53125 -6.421875 L 2.53125 -1.609375 L 0.671875 -0.421875 L -6.84375 -12.234375 L -4.03125 -14.03125 C -3.070312 -14.644531 -2.234375 -14.863281 -1.515625 -14.6875 C -0.804688 -14.519531 -0.160156 -13.976562 0.421875 -13.0625 L 1.015625 -12.140625 C 1.796875 -10.921875 1.90625 -9.859375 1.34375 -8.953125 C 1.9375 -9.066406 2.457031 -8.960938 2.90625 -8.640625 C 3.363281 -8.316406 3.785156 -7.847656 4.171875 -7.234375 L 5.328125 -5.421875 C 5.515625 -5.128906 5.6875 -4.878906 5.84375 -4.671875 C 6.007812 -4.460938 6.207031 -4.273438 6.4375 -4.109375 Z M -3.921875 -11.734375 L -1.609375 -8.109375 L -0.890625 -8.578125 C -0.535156 -8.796875 -0.316406 -9.054688 -0.234375 -9.359375 C -0.148438 -9.660156 -0.257812 -10.050781 -0.5625 -10.53125 L -1.296875 -11.6875 C -1.566406 -12.113281 -1.84375 -12.375 -2.125 -12.46875 C -2.40625 -12.570312 -2.707031 -12.519531 -3.03125 -12.3125 Z M -3.921875 -11.734375 "/></g></g></g><g fill="#146614" fill-opacity="1"><g transform="translate(147.130421, 102.632677)"><g><path d="M -0.734375 -8.59375 L 1.984375 -9.875 L 2.828125 -8.078125 L 0.109375 -6.796875 L 1.859375 -3.09375 L 5.28125 -4.71875 L 6.140625 -2.90625 L 0.71875 -0.34375 L -5.265625 -13 L 0.15625 -15.5625 L 1.015625 -13.75 L -2.40625 -12.125 Z M -0.734375 -8.59375 "/></g></g></g><g fill="#146614" fill-opacity="1"><g transform="translate(156.989447, 98.205622)"><g><path d="M -2.84375 -10.265625 C -3.207031 -11.335938 -3.222656 -12.242188 -2.890625 -12.984375 C -2.566406 -13.734375 -1.890625 -14.28125 -0.859375 -14.625 C 0.160156 -14.957031 1.019531 -14.921875 1.71875 -14.515625 C 2.414062 -14.109375 2.945312 -13.367188 3.3125 -12.296875 L 3.484375 -11.765625 L 1.515625 -11.125 L 1.296875 -11.78125 C 1.128906 -12.269531 0.921875 -12.578125 0.671875 -12.703125 C 0.429688 -12.835938 0.144531 -12.847656 -0.1875 -12.734375 C -0.519531 -12.628906 -0.742188 -12.453125 -0.859375 -12.203125 C -0.984375 -11.953125 -0.960938 -11.582031 -0.796875 -11.09375 C -0.648438 -10.644531 -0.414062 -10.273438 -0.09375 -9.984375 C 0.21875 -9.691406 0.578125 -9.441406 0.984375 -9.234375 C 1.390625 -9.023438 1.820312 -8.820312 2.28125 -8.625 C 2.738281 -8.4375 3.175781 -8.207031 3.59375 -7.9375 C 4.007812 -7.675781 4.394531 -7.34375 4.75 -6.9375 C 5.113281 -6.539062 5.398438 -6.023438 5.609375 -5.390625 C 5.960938 -4.316406 5.972656 -3.40625 5.640625 -2.65625 C 5.304688 -1.90625 4.625 -1.363281 3.59375 -1.03125 C 2.570312 -0.695312 1.703125 -0.726562 0.984375 -1.125 C 0.273438 -1.519531 -0.253906 -2.253906 -0.609375 -3.328125 L -0.90625 -4.234375 L 1.078125 -4.890625 L 1.40625 -3.859375 C 1.570312 -3.367188 1.78125 -3.0625 2.03125 -2.9375 C 2.289062 -2.8125 2.585938 -2.804688 2.921875 -2.921875 C 3.242188 -3.023438 3.46875 -3.203125 3.59375 -3.453125 C 3.726562 -3.710938 3.710938 -4.085938 3.546875 -4.578125 C 3.398438 -5.023438 3.171875 -5.390625 2.859375 -5.671875 C 2.554688 -5.960938 2.195312 -6.210938 1.78125 -6.421875 C 1.375 -6.628906 0.945312 -6.828125 0.5 -7.015625 C 0.0507812 -7.210938 -0.382812 -7.441406 -0.8125 -7.703125 C -1.25 -7.972656 -1.644531 -8.304688 -2 -8.703125 C -2.351562 -9.109375 -2.632812 -9.628906 -2.84375 -10.265625 Z M -2.84375 -10.265625 "/></g></g></g><g fill="#146614" fill-opacity="1"><g transform="translate(167.421835, 94.980216)"><g><path d="M 6.046875 -6.515625 L 6.40625 -4.6875 C 6.625 -3.570312 6.515625 -2.660156 6.078125 -1.953125 C 5.648438 -1.253906 4.910156 -0.800781 3.859375 -0.59375 C 2.796875 -0.382812 1.9375 -0.523438 1.28125 -1.015625 C 0.625 -1.503906 0.1875 -2.304688 -0.03125 -3.421875 L -1.4375 -10.5625 C -1.65625 -11.675781 -1.550781 -12.582031 -1.125 -13.28125 C -0.707031 -13.976562 0.03125 -14.429688 1.09375 -14.640625 C 2.144531 -14.847656 3.003906 -14.707031 3.671875 -14.21875 C 4.335938 -13.738281 4.78125 -12.941406 5 -11.828125 L 5.25 -10.5 L 3.203125 -10.09375 L 2.921875 -11.5625 C 2.816406 -12.0625 2.644531 -12.390625 2.40625 -12.546875 C 2.175781 -12.703125 1.882812 -12.75 1.53125 -12.6875 C 1.195312 -12.613281 0.945312 -12.457031 0.78125 -12.21875 C 0.613281 -11.988281 0.582031 -11.625 0.6875 -11.125 L 2.140625 -3.703125 C 2.242188 -3.203125 2.414062 -2.875 2.65625 -2.71875 C 2.894531 -2.5625 3.179688 -2.519531 3.515625 -2.59375 C 3.867188 -2.65625 4.125 -2.800781 4.28125 -3.03125 C 4.445312 -3.269531 4.476562 -3.640625 4.375 -4.140625 L 4 -6.109375 Z M 6.046875 -6.515625 "/></g></g></g><g fill="#146614" fill-opacity="1"><g transform="translate(178.400421, 93.037879)"><g><path d="M 2.59375 -3.40625 C 2.625 -2.894531 2.75 -2.546875 2.96875 -2.359375 C 3.195312 -2.171875 3.476562 -2.085938 3.8125 -2.109375 C 4.164062 -2.128906 4.4375 -2.25 4.625 -2.46875 C 4.8125 -2.6875 4.890625 -3.050781 4.859375 -3.5625 L 4.359375 -11.09375 C 4.316406 -11.601562 4.1875 -11.953125 3.96875 -12.140625 C 3.757812 -12.328125 3.476562 -12.410156 3.125 -12.390625 C 2.789062 -12.367188 2.523438 -12.25 2.328125 -12.03125 C 2.128906 -11.8125 2.050781 -11.445312 2.09375 -10.9375 Z M -0.09375 -10.65625 C -0.164062 -11.789062 0.0625 -12.675781 0.59375 -13.3125 C 1.125 -13.957031 1.921875 -14.316406 2.984375 -14.390625 C 4.066406 -14.460938 4.914062 -14.210938 5.53125 -13.640625 C 6.144531 -13.078125 6.488281 -12.226562 6.5625 -11.09375 L 7.0625 -3.84375 C 7.132812 -2.707031 6.90625 -1.816406 6.375 -1.171875 C 5.84375 -0.535156 5.035156 -0.179688 3.953125 -0.109375 C 2.890625 -0.0351562 2.050781 -0.28125 1.4375 -0.84375 C 0.820312 -1.414062 0.476562 -2.269531 0.40625 -3.40625 Z M -0.09375 -10.65625 "/></g></g></g><g fill="#146614" fill-opacity="1"><g transform="translate(189.84438, 92.573554)"><g/></g></g><g fill="#146614" fill-opacity="1"><g transform="translate(196.474527, 92.855561)"><g><path d="M 1.421875 -4.296875 C 1.515625 -5.023438 1.710938 -5.617188 2.015625 -6.078125 C 2.328125 -6.546875 2.773438 -6.851562 3.359375 -7 C 2.390625 -7.570312 2.007812 -8.597656 2.21875 -10.078125 L 2.265625 -10.328125 C 2.421875 -11.441406 2.804688 -12.25 3.421875 -12.75 C 4.035156 -13.257812 4.890625 -13.441406 5.984375 -13.296875 L 8.5 -12.9375 L 8.234375 -10.96875 L 5.765625 -11.3125 C 5.429688 -11.363281 5.144531 -11.300781 4.90625 -11.125 C 4.675781 -10.957031 4.53125 -10.617188 4.46875 -10.109375 L 4.34375 -9.265625 C 4.257812 -8.703125 4.320312 -8.300781 4.53125 -8.0625 C 4.738281 -7.820312 5.046875 -7.671875 5.453125 -7.609375 L 6.40625 -7.484375 L 6.625 -9.03125 L 8.796875 -8.71875 L 8.578125 -7.171875 L 9.15625 -7.09375 L 8.875 -5.109375 L 8.296875 -5.1875 L 7.65625 -0.640625 C 7.613281 -0.296875 7.585938 0 7.578125 0.25 C 7.566406 0.507812 7.59375 0.785156 7.65625 1.078125 L 5.453125 0.765625 C 5.421875 0.609375 5.398438 0.457031 5.390625 0.3125 C 5.390625 0.164062 5.394531 -0.0507812 5.40625 -0.34375 C 4.90625 0.425781 4.175781 0.742188 3.21875 0.609375 C 2.414062 0.492188 1.84375 0.140625 1.5 -0.453125 C 1.164062 -1.054688 1.070312 -1.875 1.21875 -2.90625 Z M 3.4375 -2.765625 C 3.363281 -2.253906 3.414062 -1.882812 3.59375 -1.65625 C 3.769531 -1.4375 4.023438 -1.300781 4.359375 -1.25 C 4.691406 -1.207031 4.972656 -1.265625 5.203125 -1.421875 C 5.429688 -1.578125 5.585938 -1.867188 5.671875 -2.296875 L 6.125 -5.5 L 5.28125 -5.609375 C 4.789062 -5.679688 4.410156 -5.601562 4.140625 -5.375 C 3.878906 -5.144531 3.703125 -4.703125 3.609375 -4.046875 Z M 3.4375 -2.765625 "/></g></g></g><g fill="#146614" fill-opacity="1"><g transform="translate(208.116034, 94.808684)"><g/></g></g><g fill="#146614" fill-opacity="1"><g transform="translate(214.548134, 96.463171)"><g><path d="M 5.078125 1.828125 C 5.085938 1.734375 5.09375 1.644531 5.09375 1.5625 C 5.09375 1.476562 5.101562 1.375 5.125 1.25 C 5.144531 1.132812 5.179688 0.988281 5.234375 0.8125 C 5.296875 0.632812 5.375 0.414062 5.46875 0.15625 L 6.21875 -1.921875 C 6.445312 -2.535156 6.5 -3.003906 6.375 -3.328125 C 6.25 -3.660156 5.953125 -3.910156 5.484375 -4.078125 L 4.765625 -4.34375 L 2.828125 1.015625 L 0.75 0.265625 L 5.5 -12.90625 L 8.625 -11.765625 C 9.707031 -11.378906 10.394531 -10.847656 10.6875 -10.171875 C 10.988281 -9.503906 10.957031 -8.660156 10.59375 -7.640625 L 10.21875 -6.609375 C 9.726562 -5.242188 8.957031 -4.515625 7.90625 -4.421875 C 8.351562 -4.015625 8.585938 -3.53125 8.609375 -2.96875 C 8.640625 -2.414062 8.53125 -1.796875 8.28125 -1.109375 L 7.546875 0.90625 C 7.429688 1.238281 7.34375 1.53125 7.28125 1.78125 C 7.21875 2.039062 7.1875 2.3125 7.1875 2.59375 Z M 6.90625 -10.265625 L 5.4375 -6.234375 L 6.234375 -5.9375 C 6.628906 -5.800781 6.972656 -5.789062 7.265625 -5.90625 C 7.554688 -6.019531 7.800781 -6.34375 8 -6.875 L 8.453125 -8.171875 C 8.628906 -8.640625 8.671875 -9.007812 8.578125 -9.28125 C 8.484375 -9.5625 8.257812 -9.769531 7.90625 -9.90625 Z M 6.90625 -10.265625 "/></g></g></g><g fill="#146614" fill-opacity="1"><g transform="translate(225.311283, 100.663449)"><g><path d="M 6.84375 -12.25 L 8.828125 -11.28125 L 2.703125 1.3125 L 0.71875 0.34375 Z M 6.84375 -12.25 "/></g></g></g><g fill="#146614" fill-opacity="1"><g transform="translate(231.866985, 103.945577)"><g><path d="M 8.859375 -0.625 L 7.875 0.953125 C 7.269531 1.910156 6.570312 2.5 5.78125 2.71875 C 5 2.9375 4.148438 2.757812 3.234375 2.1875 C 2.316406 1.613281 1.78125 0.925781 1.625 0.125 C 1.476562 -0.675781 1.707031 -1.554688 2.3125 -2.515625 L 6.15625 -8.703125 C 6.757812 -9.660156 7.453125 -10.25 8.234375 -10.46875 C 9.023438 -10.695312 9.878906 -10.523438 10.796875 -9.953125 C 11.710938 -9.378906 12.242188 -8.6875 12.390625 -7.875 C 12.546875 -7.070312 12.320312 -6.191406 11.71875 -5.234375 L 11 -4.078125 L 9.234375 -5.171875 L 10.03125 -6.4375 C 10.300781 -6.875 10.40625 -7.234375 10.34375 -7.515625 C 10.28125 -7.796875 10.097656 -8.03125 9.796875 -8.21875 C 9.503906 -8.40625 9.210938 -8.46875 8.921875 -8.40625 C 8.640625 -8.34375 8.363281 -8.09375 8.09375 -7.65625 L 4.09375 -1.25 C 3.820312 -0.8125 3.722656 -0.453125 3.796875 -0.171875 C 3.867188 0.0976562 4.050781 0.328125 4.34375 0.515625 C 4.644531 0.703125 4.929688 0.765625 5.203125 0.703125 C 5.484375 0.648438 5.757812 0.40625 6.03125 -0.03125 L 7.09375 -1.71875 Z M 8.859375 -0.625 "/></g></g></g><g fill="#146614" fill-opacity="1"><g transform="translate(241.213084, 110.024565)"><g><path d="M 4.203125 -0.71875 C 3.878906 -0.320312 3.734375 0.0195312 3.765625 0.3125 C 3.804688 0.601562 3.960938 0.859375 4.234375 1.078125 C 4.503906 1.304688 4.78125 1.398438 5.0625 1.359375 C 5.351562 1.328125 5.660156 1.113281 5.984375 0.71875 L 10.765625 -5.125 C 11.085938 -5.519531 11.234375 -5.859375 11.203125 -6.140625 C 11.171875 -6.429688 11.019531 -6.691406 10.75 -6.921875 C 10.476562 -7.140625 10.195312 -7.234375 9.90625 -7.203125 C 9.613281 -7.171875 9.304688 -6.957031 8.984375 -6.5625 Z M 7.21875 -7.859375 C 7.9375 -8.734375 8.707031 -9.222656 9.53125 -9.328125 C 10.351562 -9.429688 11.179688 -9.144531 12.015625 -8.46875 C 12.859375 -7.78125 13.3125 -7.019531 13.375 -6.1875 C 13.4375 -5.363281 13.109375 -4.515625 12.390625 -3.640625 L 7.78125 2 C 7.0625 2.882812 6.289062 3.378906 5.46875 3.484375 C 4.644531 3.597656 3.8125 3.3125 2.96875 2.625 C 2.132812 1.945312 1.6875 1.191406 1.625 0.359375 C 1.5625 -0.472656 1.890625 -1.332031 2.609375 -2.21875 Z M 7.21875 -7.859375 "/></g></g></g><g clip-path="url(#91179d6b8f)"><g clip-path="url(#ab29db5622)"><g transform="matrix(1, 0, 0, 1, 107, 107)"><g clip-path="url(#96e3aab0c6)"><g clip-path="url(#d09b7e302f)"><g clip-path="url(#57f68ea0ca)"><path fill="#a0e89f" d="M 0.410156 0.410156 L 160.589844 0.410156 L 160.589844 160.589844 L 0.410156 160.589844 Z M 0.410156 0.410156 " fill-opacity="1" fill-rule="nonzero"/></g></g></g></g></g></g><g transform="matrix(1, 0, 0, 1, 81, 131)"><g clip-path="url(#d0985381d8)"><g fill="#146614" fill-opacity="1"><g transform="translate(11.224704, 70.126714)"><g><path d="M 13.09375 -33.9375 L 25.484375 -33.9375 L 25.484375 -25.21875 L 13.09375 -25.21875 L 13.09375 0 L 3.484375 0 L 3.484375 -61.078125 L 28.875 -61.078125 L 28.875 -52.34375 L 13.09375 -52.34375 Z M 13.09375 -33.9375 "/></g></g></g><g fill="#146614" fill-opacity="1"><g transform="translate(41.240925, 70.126714)"><g><path d="M 23.5625 0 C 23.445312 -0.40625 23.328125 -0.78125 23.203125 -1.125 C 23.085938 -1.476562 22.984375 -1.914062 22.890625 -2.4375 C 22.804688 -2.96875 22.75 -3.640625 22.71875 -4.453125 C 22.695312 -5.265625 22.6875 -6.28125 22.6875 -7.5 L 22.6875 -17.09375 C 22.6875 -19.945312 22.191406 -21.953125 21.203125 -23.109375 C 20.210938 -24.273438 18.613281 -24.859375 16.40625 -24.859375 L 13.09375 -24.859375 L 13.09375 0 L 3.484375 0 L 3.484375 -61.078125 L 17.96875 -61.078125 C 22.976562 -61.078125 26.597656 -59.910156 28.828125 -57.578125 C 31.066406 -55.253906 32.1875 -51.738281 32.1875 -47.03125 L 32.1875 -42.234375 C 32.1875 -35.953125 30.09375 -31.820312 25.90625 -29.84375 C 28.351562 -28.851562 30.023438 -27.238281 30.921875 -25 C 31.828125 -22.757812 32.28125 -20.039062 32.28125 -16.84375 L 32.28125 -7.421875 C 32.28125 -5.898438 32.335938 -4.570312 32.453125 -3.4375 C 32.566406 -2.3125 32.859375 -1.164062 33.328125 0 Z M 13.09375 -52.34375 L 13.09375 -33.59375 L 16.84375 -33.59375 C 18.644531 -33.59375 20.050781 -34.054688 21.0625 -34.984375 C 22.082031 -35.921875 22.59375 -37.609375 22.59375 -40.046875 L 22.59375 -46.0625 C 22.59375 -48.28125 22.195312 -49.878906 21.40625 -50.859375 C 20.625 -51.847656 19.394531 -52.34375 17.71875 -52.34375 Z M 13.09375 -52.34375 "/></g></g></g><g fill="#146614" fill-opacity="1"><g transform="translate(76.317969, 70.126714)"><g><path d="M 13.09375 -35.34375 L 26.265625 -35.34375 L 26.265625 -26.609375 L 13.09375 -26.609375 L 13.09375 -8.71875 L 29.671875 -8.71875 L 29.671875 0 L 3.484375 0 L 3.484375 -61.078125 L 29.671875 -61.078125 L 29.671875 -52.34375 L 13.09375 -52.34375 Z M 13.09375 -35.34375 "/></g></g></g><g fill="#146614" fill-opacity="1"><g transform="translate(108.428286, 70.126714)"><g><path d="M 2.265625 -46.421875 C 2.265625 -51.359375 3.441406 -55.148438 5.796875 -57.796875 C 8.148438 -60.441406 11.6875 -61.765625 16.40625 -61.765625 C 21.113281 -61.765625 24.644531 -60.441406 27 -57.796875 C 29.351562 -55.148438 30.53125 -51.359375 30.53125 -46.421875 L 30.53125 -44.0625 L 21.46875 -44.0625 L 21.46875 -47.03125 C 21.46875 -49.238281 21.046875 -50.789062 20.203125 -51.6875 C 19.359375 -52.59375 18.179688 -53.046875 16.671875 -53.046875 C 15.148438 -53.046875 13.96875 -52.59375 13.125 -51.6875 C 12.28125 -50.789062 11.859375 -49.238281 11.859375 -47.03125 C 11.859375 -44.9375 12.320312 -43.085938 13.25 -41.484375 C 14.1875 -39.890625 15.351562 -38.378906 16.75 -36.953125 C 18.144531 -35.523438 19.640625 -34.097656 21.234375 -32.671875 C 22.835938 -31.242188 24.335938 -29.6875 25.734375 -28 C 27.128906 -26.320312 28.289062 -24.40625 29.21875 -22.25 C 30.15625 -20.09375 30.625 -17.5625 30.625 -14.65625 C 30.625 -9.707031 29.414062 -5.910156 27 -3.265625 C 24.59375 -0.617188 21.03125 0.703125 16.3125 0.703125 C 11.601562 0.703125 8.039062 -0.617188 5.625 -3.265625 C 3.207031 -5.910156 2 -9.707031 2 -14.65625 L 2 -18.84375 L 11.078125 -18.84375 L 11.078125 -14.046875 C 11.078125 -11.835938 11.523438 -10.296875 12.421875 -9.421875 C 13.328125 -8.546875 14.535156 -8.109375 16.046875 -8.109375 C 17.566406 -8.109375 18.773438 -8.546875 19.671875 -9.421875 C 20.578125 -10.296875 21.03125 -11.835938 21.03125 -14.046875 C 21.03125 -16.140625 20.5625 -17.984375 19.625 -19.578125 C 18.695312 -21.179688 17.535156 -22.695312 16.140625 -24.125 C 14.742188 -25.550781 13.242188 -26.972656 11.640625 -28.390625 C 10.046875 -29.816406 8.550781 -31.375 7.15625 -33.0625 C 5.757812 -34.75 4.59375 -36.664062 3.65625 -38.8125 C 2.726562 -40.96875 2.265625 -43.503906 2.265625 -46.421875 Z M 2.265625 -46.421875 "/></g></g></g><g fill="#146614" fill-opacity="1"><g transform="translate(141.062182, 70.126714)"><g><path d="M 31.328125 -22.765625 L 31.328125 -14.65625 C 31.328125 -9.707031 30.117188 -5.910156 27.703125 -3.265625 C 25.285156 -0.617188 21.722656 0.703125 17.015625 0.703125 C 12.304688 0.703125 8.742188 -0.617188 6.328125 -3.265625 C 3.910156 -5.910156 2.703125 -9.707031 2.703125 -14.65625 L 2.703125 -46.421875 C 2.703125 -51.359375 3.910156 -55.148438 6.328125 -57.796875 C 8.742188 -60.441406 12.304688 -61.765625 17.015625 -61.765625 C 21.722656 -61.765625 25.285156 -60.441406 27.703125 -57.796875 C 30.117188 -55.148438 31.328125 -51.359375 31.328125 -46.421875 L 31.328125 -40.484375 L 22.25 -40.484375 L 22.25 -47.03125 C 22.25 -49.238281 21.796875 -50.789062 20.890625 -51.6875 C 19.992188 -52.59375 18.789062 -53.046875 17.28125 -53.046875 C 15.757812 -53.046875 14.546875 -52.59375 13.640625 -51.6875 C 12.742188 -50.789062 12.296875 -49.238281 12.296875 -47.03125 L 12.296875 -14.046875 C 12.296875 -11.835938 12.742188 -10.296875 13.640625 -9.421875 C 14.546875 -8.546875 15.757812 -8.109375 17.28125 -8.109375 C 18.789062 -8.109375 19.992188 -8.546875 20.890625 -9.421875 C 21.796875 -10.296875 22.25 -11.835938 22.25 -14.046875 L 22.25 -22.765625 Z M 31.328125 -22.765625 "/></g></g></g><g fill="#146614" fill-opacity="1"><g transform="translate(174.743126, 70.126714)"><g><path d="M 12.296875 -14.046875 C 12.296875 -11.835938 12.742188 -10.28125 13.640625 -9.375 C 14.546875 -8.476562 15.757812 -8.03125 17.28125 -8.03125 C 18.789062 -8.03125 19.992188 -8.476562 20.890625 -9.375 C 21.796875 -10.28125 22.25 -11.835938 22.25 -14.046875 L 22.25 -47.03125 C 22.25 -49.238281 21.796875 -50.789062 20.890625 -51.6875 C 19.992188 -52.59375 18.789062 -53.046875 17.28125 -53.046875 C 15.757812 -53.046875 14.546875 -52.59375 13.640625 -51.6875 C 12.742188 -50.789062 12.296875 -49.238281 12.296875 -47.03125 Z M 2.703125 -46.421875 C 2.703125 -51.359375 3.953125 -55.148438 6.453125 -57.796875 C 8.953125 -60.441406 12.5625 -61.765625 17.28125 -61.765625 C 21.988281 -61.765625 25.59375 -60.441406 28.09375 -57.796875 C 30.59375 -55.148438 31.84375 -51.359375 31.84375 -46.421875 L 31.84375 -14.65625 C 31.84375 -9.707031 30.59375 -5.910156 28.09375 -3.265625 C 25.59375 -0.617188 21.988281 0.703125 17.28125 0.703125 C 12.5625 0.703125 8.953125 -0.617188 6.453125 -3.265625 C 3.953125 -5.910156 2.703125 -9.707031 2.703125 -14.65625 Z M 2.703125 -46.421875 "/></g></g></g><g fill="#5d5340" fill-opacity="1"><g transform="translate(7.368509, 66.27052)"><g><path d="M 13.09375 -33.9375 L 25.484375 -33.9375 L 25.484375 -25.21875 L 13.09375 -25.21875 L 13.09375 0 L 3.484375 0 L 3.484375 -61.078125 L 28.875 -61.078125 L 28.875 -52.34375 L 13.09375 -52.34375 Z M 13.09375 -33.9375 "/></g></g></g><g fill="#5d5340" fill-opacity="1"><g transform="translate(37.38473, 66.27052)"><g><path d="M 23.5625 0 C 23.445312 -0.40625 23.328125 -0.78125 23.203125 -1.125 C 23.085938 -1.476562 22.984375 -1.914062 22.890625 -2.4375 C 22.804688 -2.96875 22.75 -3.640625 22.71875 -4.453125 C 22.695312 -5.265625 22.6875 -6.28125 22.6875 -7.5 L 22.6875 -17.09375 C 22.6875 -19.945312 22.191406 -21.953125 21.203125 -23.109375 C 20.210938 -24.273438 18.613281 -24.859375 16.40625 -24.859375 L 13.09375 -24.859375 L 13.09375 0 L 3.484375 0 L 3.484375 -61.078125 L 17.96875 -61.078125 C 22.976562 -61.078125 26.597656 -59.910156 28.828125 -57.578125 C 31.066406 -55.253906 32.1875 -51.738281 32.1875 -47.03125 L 32.1875 -42.234375 C 32.1875 -35.953125 30.09375 -31.820312 25.90625 -29.84375 C 28.351562 -28.851562 30.023438 -27.238281 30.921875 -25 C 31.828125 -22.757812 32.28125 -20.039062 32.28125 -16.84375 L 32.28125 -7.421875 C 32.28125 -5.898438 32.335938 -4.570312 32.453125 -3.4375 C 32.566406 -2.3125 32.859375 -1.164062 33.328125 0 Z M 13.09375 -52.34375 L 13.09375 -33.59375 L 16.84375 -33.59375 C 18.644531 -33.59375 20.050781 -34.054688 21.0625 -34.984375 C 22.082031 -35.921875 22.59375 -37.609375 22.59375 -40.046875 L 22.59375 -46.0625 C 22.59375 -48.28125 22.195312 -49.878906 21.40625 -50.859375 C 20.625 -51.847656 19.394531 -52.34375 17.71875 -52.34375 Z M 13.09375 -52.34375 "/></g></g></g><g fill="#5d5340" fill-opacity="1"><g transform="translate(72.461774, 66.27052)"><g><path d="M 13.09375 -35.34375 L 26.265625 -35.34375 L 26.265625 -26.609375 L 13.09375 -26.609375 L 13.09375 -8.71875 L 29.671875 -8.71875 L 29.671875 0 L 3.484375 0 L 3.484375 -61.078125 L 29.671875 -61.078125 L 29.671875 -52.34375 L 13.09375 -52.34375 Z M 13.09375 -35.34375 "/></g></g></g><g fill="#5d5340" fill-opacity="1"><g transform="translate(104.572091, 66.27052)"><g><path d="M 2.265625 -46.421875 C 2.265625 -51.359375 3.441406 -55.148438 5.796875 -57.796875 C 8.148438 -60.441406 11.6875 -61.765625 16.40625 -61.765625 C 21.113281 -61.765625 24.644531 -60.441406 27 -57.796875 C 29.351562 -55.148438 30.53125 -51.359375 30.53125 -46.421875 L 30.53125 -44.0625 L 21.46875 -44.0625 L 21.46875 -47.03125 C 21.46875 -49.238281 21.046875 -50.789062 20.203125 -51.6875 C 19.359375 -52.59375 18.179688 -53.046875 16.671875 -53.046875 C 15.148438 -53.046875 13.96875 -52.59375 13.125 -51.6875 C 12.28125 -50.789062 11.859375 -49.238281 11.859375 -47.03125 C 11.859375 -44.9375 12.320312 -43.085938 13.25 -41.484375 C 14.1875 -39.890625 15.351562 -38.378906 16.75 -36.953125 C 18.144531 -35.523438 19.640625 -34.097656 21.234375 -32.671875 C 22.835938 -31.242188 24.335938 -29.6875 25.734375 -28 C 27.128906 -26.320312 28.289062 -24.40625 29.21875 -22.25 C 30.15625 -20.09375 30.625 -17.5625 30.625 -14.65625 C 30.625 -9.707031 29.414062 -5.910156 27 -3.265625 C 24.59375 -0.617188 21.03125 0.703125 16.3125 0.703125 C 11.601562 0.703125 8.039062 -0.617188 5.625 -3.265625 C 3.207031 -5.910156 2 -9.707031 2 -14.65625 L 2 -18.84375 L 11.078125 -18.84375 L 11.078125 -14.046875 C 11.078125 -11.835938 11.523438 -10.296875 12.421875 -9.421875 C 13.328125 -8.546875 14.535156 -8.109375 16.046875 -8.109375 C 17.566406 -8.109375 18.773438 -8.546875 19.671875 -9.421875 C 20.578125 -10.296875 21.03125 -11.835938 21.03125 -14.046875 C 21.03125 -16.140625 20.5625 -17.984375 19.625 -19.578125 C 18.695312 -21.179688 17.535156 -22.695312 16.140625 -24.125 C 14.742188 -25.550781 13.242188 -26.972656 11.640625 -28.390625 C 10.046875 -29.816406 8.550781 -31.375 7.15625 -33.0625 C 5.757812 -34.75 4.59375 -36.664062 3.65625 -38.8125 C 2.726562 -40.96875 2.265625 -43.503906 2.265625 -46.421875 Z M 2.265625 -46.421875 "/></g></g></g><g fill="#5d5340" fill-opacity="1"><g transform="translate(137.205987, 66.27052)"><g><path d="M 31.328125 -22.765625 L 31.328125 -14.65625 C 31.328125 -9.707031 30.117188 -5.910156 27.703125 -3.265625 C 25.285156 -0.617188 21.722656 0.703125 17.015625 0.703125 C 12.304688 0.703125 8.742188 -0.617188 6.328125 -3.265625 C 3.910156 -5.910156 2.703125 -9.707031 2.703125 -14.65625 L 2.703125 -46.421875 C 2.703125 -51.359375 3.910156 -55.148438 6.328125 -57.796875 C 8.742188 -60.441406 12.304688 -61.765625 17.015625 -61.765625 C 21.722656 -61.765625 25.285156 -60.441406 27.703125 -57.796875 C 30.117188 -55.148438 31.328125 -51.359375 31.328125 -46.421875 L 31.328125 -40.484375 L 22.25 -40.484375 L 22.25 -47.03125 C 22.25 -49.238281 21.796875 -50.789062 20.890625 -51.6875 C 19.992188 -52.59375 18.789062 -53.046875 17.28125 -53.046875 C 15.757812 -53.046875 14.546875 -52.59375 13.640625 -51.6875 C 12.742188 -50.789062 12.296875 -49.238281 12.296875 -47.03125 L 12.296875 -14.046875 C 12.296875 -11.835938 12.742188 -10.296875 13.640625 -9.421875 C 14.546875 -8.546875 15.757812 -8.109375 17.28125 -8.109375 C 18.789062 -8.109375 19.992188 -8.546875 20.890625 -9.421875 C 21.796875 -10.296875 22.25 -11.835938 22.25 -14.046875 L 22.25 -22.765625 Z M 31.328125 -22.765625 "/></g></g></g><g fill="#5d5340" fill-opacity="1"><g transform="translate(170.886931, 66.27052)"><g><path d="M 12.296875 -14.046875 C 12.296875 -11.835938 12.742188 -10.28125 13.640625 -9.375 C 14.546875 -8.476562 15.757812 -8.03125 17.28125 -8.03125 C 18.789062 -8.03125 19.992188 -8.476562 20.890625 -9.375 C 21.796875 -10.28125 22.25 -11.835938 22.25 -14.046875 L 22.25 -47.03125 C 22.25 -49.238281 21.796875 -50.789062 20.890625 -51.6875 C 19.992188 -52.59375 18.789062 -53.046875 17.28125 -53.046875 C 15.757812 -53.046875 14.546875 -52.59375 13.640625 -51.6875 C 12.742188 -50.789062 12.296875 -49.238281 12.296875 -47.03125 Z M 2.703125 -46.421875 C 2.703125 -51.359375 3.953125 -55.148438 6.453125 -57.796875 C 8.953125 -60.441406 12.5625 -61.765625 17.28125 -61.765625 C 21.988281 -61.765625 25.59375 -60.441406 28.09375 -57.796875 C 30.59375 -55.148438 31.84375 -51.359375 31.84375 -46.421875 L 31.84375 -14.65625 C 31.84375 -9.707031 30.59375 -5.910156 28.09375 -3.265625 C 25.59375 -0.617188 21.988281 0.703125 17.28125 0.703125 C 12.5625 0.703125 8.953125 -0.617188 6.453125 -3.265625 C 3.953125 -5.910156 2.703125 -9.707031 2.703125 -14.65625 Z M 2.703125 -46.421875 "/></g></g></g></g></g><g transform="matrix(1, 0, 0, 1, 79, 129)"><g clip-path="url(#f1654100fa)"><g fill="#146614" fill-opacity="1"><g transform="translate(14.75934, 73.405281)"><g><path d="M 13.089844 -36.125 L 27.660156 -36.125 L 27.660156 -23.035156 L 13.089844 -23.035156 L 13.089844 -25.21875 L 15.269531 -25.21875 L 15.269531 2.179688 L 1.308594 2.179688 L 1.308594 -63.261719 L 31.0625 -63.261719 L 31.0625 -50.171875 L 13.089844 -50.171875 L 13.089844 -52.351562 L 15.269531 -52.351562 L 15.269531 -33.941406 L 13.089844 -33.941406 Z M 10.90625 -31.761719 L 10.90625 -54.535156 L 28.882812 -54.535156 L 28.882812 -52.351562 L 26.699219 -52.351562 L 26.699219 -61.078125 L 28.882812 -61.078125 L 28.882812 -58.898438 L 3.488281 -58.898438 L 3.488281 -61.078125 L 5.671875 -61.078125 L 5.671875 0 L 3.488281 0 L 3.488281 -2.179688 L 13.089844 -2.179688 L 13.089844 0 L 10.90625 0 L 10.90625 -27.398438 L 25.480469 -27.398438 L 25.480469 -25.21875 L 23.296875 -25.21875 L 23.296875 -33.941406 L 25.480469 -33.941406 L 25.480469 -31.761719 Z M 10.90625 -31.761719 "/></g></g></g><g fill="#146614" fill-opacity="1"><g transform="translate(44.775562, 73.405281)"><g><path d="M 21.460938 0.597656 C 21.355469 0.222656 21.246094 -0.125 21.140625 -0.445312 C 20.988281 -0.902344 20.859375 -1.449219 20.753906 -2.085938 C 20.648438 -2.699219 20.582031 -3.464844 20.550781 -4.371094 C 20.519531 -5.210938 20.503906 -6.257812 20.503906 -7.503906 L 20.503906 -17.101562 C 20.503906 -19.417969 20.183594 -20.953125 19.542969 -21.710938 C 18.988281 -22.359375 17.941406 -22.6875 16.402344 -22.6875 L 13.089844 -22.6875 L 13.089844 -24.867188 L 15.269531 -24.867188 L 15.269531 2.179688 L 1.308594 2.179688 L 1.308594 -63.261719 L 17.976562 -63.261719 C 23.597656 -63.261719 27.742188 -61.875 30.410156 -59.101562 C 33.054688 -56.351562 34.378906 -52.328125 34.378906 -47.03125 L 34.378906 -42.230469 C 34.378906 -38.742188 33.777344 -35.8125 32.574219 -33.4375 C 31.300781 -30.925781 29.390625 -29.070312 26.847656 -27.867188 L 25.914062 -29.839844 L 26.734375 -31.863281 C 29.75 -30.644531 31.824219 -28.625 32.957031 -25.8125 C 33.960938 -23.3125 34.464844 -20.320312 34.464844 -16.839844 L 34.464844 -7.417969 C 34.464844 -5.980469 34.519531 -4.730469 34.628906 -3.667969 C 34.726562 -2.738281 34.96875 -1.785156 35.355469 -0.808594 L 36.554688 2.179688 L 21.914062 2.179688 Z M 25.65625 -0.597656 L 23.558594 0 L 23.558594 -2.179688 L 33.332031 -2.179688 L 33.332031 0 L 31.304688 0.808594 C 30.765625 -0.542969 30.425781 -1.886719 30.289062 -3.222656 C 30.164062 -4.433594 30.101562 -5.828125 30.101562 -7.417969 L 30.101562 -16.839844 C 30.101562 -19.757812 29.703125 -22.207031 28.910156 -24.183594 C 28.238281 -25.851562 26.96875 -27.0625 25.097656 -27.820312 L 20.480469 -29.6875 L 24.984375 -31.8125 C 28.339844 -33.398438 30.015625 -36.871094 30.015625 -42.230469 L 30.015625 -47.03125 C 30.015625 -51.15625 29.097656 -54.171875 27.265625 -56.074219 C 25.457031 -57.957031 22.359375 -58.898438 17.976562 -58.898438 L 3.488281 -58.898438 L 3.488281 -61.078125 L 5.671875 -61.078125 L 5.671875 0 L 3.488281 0 L 3.488281 -2.179688 L 13.089844 -2.179688 L 13.089844 0 L 10.90625 0 L 10.90625 -27.050781 L 16.402344 -27.050781 C 19.285156 -27.050781 21.441406 -26.210938 22.863281 -24.535156 C 24.199219 -22.964844 24.867188 -20.488281 24.867188 -17.101562 L 24.867188 -7.503906 C 24.867188 -6.308594 24.882812 -5.316406 24.910156 -4.527344 C 24.9375 -3.808594 24.984375 -3.230469 25.054688 -2.800781 C 25.125 -2.390625 25.199219 -2.066406 25.28125 -1.824219 C 25.40625 -1.445312 25.53125 -1.035156 25.65625 -0.597656 Z M 15.269531 -52.351562 L 15.269531 -33.59375 L 13.089844 -33.59375 L 13.089844 -35.773438 L 16.839844 -35.773438 C 18.078125 -35.773438 19 -36.050781 19.601562 -36.597656 C 20.144531 -37.097656 20.417969 -38.25 20.417969 -40.050781 L 20.417969 -46.070312 C 20.417969 -47.773438 20.183594 -48.921875 19.714844 -49.511719 C 19.363281 -49.953125 18.699219 -50.171875 17.714844 -50.171875 L 13.089844 -50.171875 L 13.089844 -52.351562 Z M 10.90625 -54.535156 L 17.714844 -54.535156 C 20.101562 -54.535156 21.90625 -53.765625 23.128906 -52.226562 C 24.230469 -50.839844 24.78125 -48.789062 24.78125 -46.070312 L 24.78125 -40.050781 C 24.78125 -36.964844 24.035156 -34.742188 22.542969 -33.378906 C 21.109375 -32.066406 19.207031 -31.410156 16.839844 -31.410156 L 10.90625 -31.410156 Z M 10.90625 -54.535156 "/></g></g></g><g fill="#146614" fill-opacity="1"><g transform="translate(79.852606, 73.405281)"><g><path d="M 13.089844 -37.519531 L 28.445312 -37.519531 L 28.445312 -24.429688 L 13.089844 -24.429688 L 13.089844 -26.613281 L 15.269531 -26.613281 L 15.269531 -8.726562 L 13.089844 -8.726562 L 13.089844 -10.90625 L 31.847656 -10.90625 L 31.847656 2.179688 L 1.308594 2.179688 L 1.308594 -63.261719 L 31.847656 -63.261719 L 31.847656 -50.171875 L 13.089844 -50.171875 L 13.089844 -52.351562 L 15.269531 -52.351562 L 15.269531 -35.339844 L 13.089844 -35.339844 Z M 10.90625 -33.15625 L 10.90625 -54.535156 L 29.667969 -54.535156 L 29.667969 -52.351562 L 27.484375 -52.351562 L 27.484375 -61.078125 L 29.667969 -61.078125 L 29.667969 -58.898438 L 3.488281 -58.898438 L 3.488281 -61.078125 L 5.671875 -61.078125 L 5.671875 0 L 3.488281 0 L 3.488281 -2.179688 L 29.667969 -2.179688 L 29.667969 0 L 27.484375 0 L 27.484375 -8.726562 L 29.667969 -8.726562 L 29.667969 -6.542969 L 10.90625 -6.542969 L 10.90625 -28.792969 L 26.265625 -28.792969 L 26.265625 -26.613281 L 24.082031 -26.613281 L 24.082031 -35.339844 L 26.265625 -35.339844 L 26.265625 -33.15625 Z M 10.90625 -33.15625 "/></g></g></g><g fill="#146614" fill-opacity="1"><g transform="translate(111.962923, 73.405281)"><g><path d="M 0.0859375 -46.421875 C 0.0859375 -51.917969 1.449219 -56.195312 4.171875 -59.257812 C 6.960938 -62.390625 11.039062 -63.957031 16.402344 -63.957031 C 21.769531 -63.957031 25.84375 -62.390625 28.636719 -59.257812 C 31.359375 -56.195312 32.722656 -51.917969 32.722656 -46.421875 L 32.722656 -41.882812 L 19.285156 -41.882812 L 19.285156 -47.03125 C 19.285156 -48.667969 19.058594 -49.726562 18.605469 -50.207031 C 18.195312 -50.648438 17.546875 -50.871094 16.664062 -50.871094 C 15.785156 -50.871094 15.136719 -50.648438 14.726562 -50.207031 C 14.273438 -49.726562 14.046875 -48.667969 14.046875 -47.03125 C 14.046875 -45.328125 14.414062 -43.847656 15.148438 -42.585938 C 15.988281 -41.144531 17.042969 -39.773438 18.3125 -38.480469 C 19.671875 -37.089844 21.136719 -35.699219 22.699219 -34.304688 C 24.378906 -32.808594 25.953125 -31.171875 27.421875 -29.398438 C 28.949219 -27.554688 30.21875 -25.457031 31.234375 -23.117188 C 32.28125 -20.6875 32.808594 -17.867188 32.808594 -14.660156 C 32.808594 -9.152344 31.410156 -4.867188 28.617188 -1.800781 C 25.769531 1.320312 21.671875 2.878906 16.316406 2.878906 C 10.964844 2.878906 6.863281 1.320312 4.015625 -1.800781 C 1.222656 -4.867188 -0.175781 -9.152344 -0.175781 -14.660156 L -0.175781 -21.027344 L 13.261719 -21.027344 L 13.261719 -14.046875 C 13.261719 -12.453125 13.492188 -11.433594 13.949219 -10.992188 C 14.429688 -10.527344 15.132812 -10.296875 16.054688 -10.296875 C 16.980469 -10.296875 17.679688 -10.527344 18.160156 -10.992188 C 18.617188 -11.433594 18.847656 -12.453125 18.847656 -14.046875 C 18.847656 -15.75 18.480469 -17.230469 17.746094 -18.492188 C 16.90625 -19.933594 15.851562 -21.304688 14.585938 -22.601562 C 13.222656 -23.988281 11.761719 -25.378906 10.199219 -26.773438 C 8.515625 -28.273438 6.941406 -29.90625 5.472656 -31.679688 C 3.945312 -33.527344 2.675781 -35.621094 1.664062 -37.964844 C 0.613281 -40.390625 0.0859375 -43.210938 0.0859375 -46.421875 Z M 4.449219 -46.421875 C 4.449219 -43.8125 4.855469 -41.570312 5.667969 -39.695312 C 6.515625 -37.734375 7.570312 -35.988281 8.835938 -34.460938 C 10.160156 -32.859375 11.582031 -31.382812 13.101562 -30.03125 C 14.734375 -28.574219 16.269531 -27.113281 17.699219 -25.652344 C 19.222656 -24.097656 20.496094 -22.441406 21.519531 -20.6875 C 22.644531 -18.746094 23.210938 -16.535156 23.210938 -14.046875 C 23.210938 -11.222656 22.539062 -9.15625 21.191406 -7.855469 C 19.867188 -6.574219 18.15625 -5.933594 16.054688 -5.933594 C 13.953125 -5.933594 12.242188 -6.574219 10.917969 -7.855469 C 9.574219 -9.15625 8.898438 -11.222656 8.898438 -14.046875 L 8.898438 -18.847656 L 11.082031 -18.847656 L 11.082031 -16.664062 L 2.007812 -16.664062 L 2.007812 -18.847656 L 4.1875 -18.847656 L 4.1875 -14.660156 C 4.1875 -10.277344 5.207031 -6.972656 7.238281 -4.742188 C 9.222656 -2.570312 12.246094 -1.484375 16.316406 -1.484375 C 20.386719 -1.484375 23.414062 -2.570312 25.394531 -4.742188 C 27.429688 -6.972656 28.445312 -10.277344 28.445312 -14.660156 C 28.445312 -17.265625 28.039062 -19.507812 27.226562 -21.382812 C 26.378906 -23.347656 25.324219 -25.089844 24.058594 -26.617188 C 22.734375 -28.21875 21.3125 -29.695312 19.796875 -31.046875 C 18.160156 -32.507812 16.625 -33.964844 15.195312 -35.425781 C 13.671875 -36.980469 12.398438 -38.636719 11.378906 -40.394531 C 10.25 -42.332031 9.683594 -44.542969 9.683594 -47.03125 C 9.683594 -49.816406 10.304688 -51.867188 11.539062 -53.1875 C 12.8125 -54.550781 14.523438 -55.234375 16.664062 -55.234375 C 18.808594 -55.234375 20.519531 -54.550781 21.792969 -53.1875 C 23.027344 -51.867188 23.644531 -49.816406 23.644531 -47.03125 L 23.644531 -44.0625 L 21.464844 -44.0625 L 21.464844 -46.246094 L 30.539062 -46.246094 L 30.539062 -44.0625 L 28.359375 -44.0625 L 28.359375 -46.421875 C 28.359375 -50.8125 27.363281 -54.125 25.375 -56.355469 C 23.453125 -58.515625 20.464844 -59.59375 16.402344 -59.59375 C 12.34375 -59.59375 9.355469 -58.515625 7.433594 -56.355469 C 5.445312 -54.125 4.449219 -50.8125 4.449219 -46.421875 Z M 4.449219 -46.421875 "/></g></g></g><g fill="#146614" fill-opacity="1"><g transform="translate(144.596819, 73.405281)"><g><path d="M 33.507812 -22.773438 L 33.507812 -14.660156 C 33.507812 -9.152344 32.109375 -4.867188 29.316406 -1.800781 C 26.46875 1.320312 22.367188 2.878906 17.015625 2.878906 C 11.660156 2.878906 7.5625 1.320312 4.714844 -1.800781 C 1.921875 -4.867188 0.523438 -9.152344 0.523438 -14.660156 L 0.523438 -46.421875 C 0.523438 -51.929688 1.921875 -56.214844 4.714844 -59.277344 C 7.5625 -62.398438 11.660156 -63.957031 17.015625 -63.957031 C 22.367188 -63.957031 26.46875 -62.398438 29.316406 -59.277344 C 32.109375 -56.214844 33.507812 -51.929688 33.507812 -46.421875 L 33.507812 -38.304688 L 20.070312 -38.304688 L 20.070312 -47.03125 C 20.070312 -48.640625 19.832031 -49.679688 19.355469 -50.15625 C 18.878906 -50.632812 18.1875 -50.871094 17.277344 -50.871094 C 16.367188 -50.871094 15.671875 -50.632812 15.199219 -50.15625 C 14.722656 -49.679688 14.484375 -48.640625 14.484375 -47.03125 L 14.484375 -14.046875 C 14.484375 -12.453125 14.714844 -11.433594 15.171875 -10.992188 C 15.652344 -10.527344 16.351562 -10.296875 17.277344 -10.296875 C 18.199219 -10.296875 18.902344 -10.527344 19.378906 -10.992188 C 19.839844 -11.433594 20.070312 -12.453125 20.070312 -14.046875 L 20.070312 -24.957031 L 33.507812 -24.957031 Z M 29.144531 -22.773438 L 31.324219 -22.773438 L 31.324219 -20.59375 L 22.25 -20.59375 L 22.25 -22.773438 L 24.429688 -22.773438 L 24.429688 -14.046875 C 24.429688 -11.222656 23.757812 -9.15625 22.414062 -7.855469 C 21.089844 -6.574219 19.378906 -5.933594 17.277344 -5.933594 C 15.175781 -5.933594 13.464844 -6.574219 12.136719 -7.855469 C 10.792969 -9.15625 10.121094 -11.222656 10.121094 -14.046875 L 10.121094 -47.03125 C 10.121094 -49.84375 10.785156 -51.914062 12.113281 -53.242188 C 13.441406 -54.570312 15.160156 -55.234375 17.277344 -55.234375 C 19.390625 -55.234375 21.113281 -54.570312 22.441406 -53.242188 C 23.769531 -51.914062 24.429688 -49.84375 24.429688 -47.03125 L 24.429688 -40.488281 L 22.25 -40.488281 L 22.25 -42.667969 L 31.324219 -42.667969 L 31.324219 -40.488281 L 29.144531 -40.488281 L 29.144531 -46.421875 C 29.144531 -50.800781 28.125 -54.105469 26.09375 -56.335938 C 24.109375 -58.507812 21.085938 -59.59375 17.015625 -59.59375 C 12.945312 -59.59375 9.917969 -58.507812 7.9375 -56.335938 C 5.902344 -54.105469 4.886719 -50.800781 4.886719 -46.421875 L 4.886719 -14.660156 C 4.886719 -10.277344 5.902344 -6.972656 7.9375 -4.742188 C 9.917969 -2.570312 12.945312 -1.484375 17.015625 -1.484375 C 21.085938 -1.484375 24.109375 -2.570312 26.09375 -4.742188 C 28.125 -6.972656 29.144531 -10.277344 29.144531 -14.660156 Z M 29.144531 -22.773438 "/></g></g></g><g fill="#146614" fill-opacity="1"><g transform="translate(178.277763, 73.405281)"><g><path d="M 14.484375 -14.046875 C 14.484375 -12.441406 14.722656 -11.398438 15.199219 -10.921875 C 15.671875 -10.445312 16.367188 -10.207031 17.277344 -10.207031 C 18.1875 -10.207031 18.878906 -10.445312 19.355469 -10.921875 C 19.832031 -11.398438 20.070312 -12.441406 20.070312 -14.046875 L 20.070312 -47.03125 C 20.070312 -48.640625 19.832031 -49.679688 19.355469 -50.15625 C 18.878906 -50.632812 18.1875 -50.871094 17.277344 -50.871094 C 16.367188 -50.871094 15.671875 -50.632812 15.199219 -50.15625 C 14.722656 -49.679688 14.484375 -48.640625 14.484375 -47.03125 Z M 10.121094 -14.046875 L 10.121094 -47.03125 C 10.121094 -49.84375 10.785156 -51.914062 12.113281 -53.242188 C 13.441406 -54.570312 15.160156 -55.234375 17.277344 -55.234375 C 19.390625 -55.234375 21.113281 -54.570312 22.441406 -53.242188 C 23.769531 -51.914062 24.429688 -49.84375 24.429688 -47.03125 L 24.429688 -14.046875 C 24.429688 -11.234375 23.769531 -9.164062 22.441406 -7.835938 C 21.113281 -6.511719 19.390625 -5.847656 17.277344 -5.847656 C 15.160156 -5.847656 13.441406 -6.511719 12.113281 -7.835938 C 10.785156 -9.164062 10.121094 -11.234375 10.121094 -14.046875 Z M 0.523438 -46.421875 C 0.523438 -51.941406 1.972656 -56.238281 4.871094 -59.304688 C 7.804688 -62.40625 11.9375 -63.957031 17.277344 -63.957031 C 22.613281 -63.957031 26.75 -62.40625 29.683594 -59.304688 C 32.582031 -56.238281 34.03125 -51.941406 34.03125 -46.421875 L 34.03125 -14.660156 C 34.03125 -9.136719 32.582031 -4.839844 29.683594 -1.773438 C 26.75 1.328125 22.613281 2.878906 17.277344 2.878906 C 11.9375 2.878906 7.804688 1.328125 4.871094 -1.773438 C 1.972656 -4.839844 0.523438 -9.136719 0.523438 -14.660156 Z M 4.886719 -46.421875 L 4.886719 -14.660156 C 4.886719 -10.292969 5.9375 -6.996094 8.042969 -4.769531 C 10.113281 -2.578125 13.191406 -1.484375 17.277344 -1.484375 C 21.363281 -1.484375 24.441406 -2.578125 26.511719 -4.769531 C 28.613281 -6.996094 29.667969 -10.292969 29.667969 -14.660156 L 29.667969 -46.421875 C 29.667969 -50.785156 28.613281 -54.082031 26.511719 -56.308594 C 24.441406 -58.5 21.363281 -59.59375 17.277344 -59.59375 C 13.191406 -59.59375 10.113281 -58.5 8.042969 -56.308594 C 5.9375 -54.082031 4.886719 -50.785156 4.886719 -46.421875 Z M 4.886719 -46.421875 "/></g></g></g><g fill="#ffffff" fill-opacity="1"><g transform="translate(14.75934, 73.405281)"><g><path d="M 13.09375 -33.9375 L 25.484375 -33.9375 L 25.484375 -25.21875 L 13.09375 -25.21875 L 13.09375 0 L 3.484375 0 L 3.484375 -61.078125 L 28.875 -61.078125 L 28.875 -52.34375 L 13.09375 -52.34375 Z M 13.09375 -33.9375 "/></g></g></g><g fill="#ffffff" fill-opacity="1"><g transform="translate(44.775562, 73.405281)"><g><path d="M 23.5625 0 C 23.445312 -0.40625 23.328125 -0.78125 23.203125 -1.125 C 23.085938 -1.476562 22.984375 -1.914062 22.890625 -2.4375 C 22.804688 -2.96875 22.75 -3.640625 22.71875 -4.453125 C 22.695312 -5.265625 22.6875 -6.28125 22.6875 -7.5 L 22.6875 -17.09375 C 22.6875 -19.945312 22.191406 -21.953125 21.203125 -23.109375 C 20.210938 -24.273438 18.613281 -24.859375 16.40625 -24.859375 L 13.09375 -24.859375 L 13.09375 0 L 3.484375 0 L 3.484375 -61.078125 L 17.96875 -61.078125 C 22.976562 -61.078125 26.597656 -59.910156 28.828125 -57.578125 C 31.066406 -55.253906 32.1875 -51.738281 32.1875 -47.03125 L 32.1875 -42.234375 C 32.1875 -35.953125 30.09375 -31.820312 25.90625 -29.84375 C 28.351562 -28.851562 30.023438 -27.238281 30.921875 -25 C 31.828125 -22.757812 32.28125 -20.039062 32.28125 -16.84375 L 32.28125 -7.421875 C 32.28125 -5.898438 32.335938 -4.570312 32.453125 -3.4375 C 32.566406 -2.3125 32.859375 -1.164062 33.328125 0 Z M 13.09375 -52.34375 L 13.09375 -33.59375 L 16.84375 -33.59375 C 18.644531 -33.59375 20.050781 -34.054688 21.0625 -34.984375 C 22.082031 -35.921875 22.59375 -37.609375 22.59375 -40.046875 L 22.59375 -46.0625 C 22.59375 -48.28125 22.195312 -49.878906 21.40625 -50.859375 C 20.625 -51.847656 19.394531 -52.34375 17.71875 -52.34375 Z M 13.09375 -52.34375 "/></g></g></g><g fill="#ffffff" fill-opacity="1"><g transform="translate(79.852606, 73.405281)"><g><path d="M 13.09375 -35.34375 L 26.265625 -35.34375 L 26.265625 -26.609375 L 13.09375 -26.609375 L 13.09375 -8.71875 L 29.671875 -8.71875 L 29.671875 0 L 3.484375 0 L 3.484375 -61.078125 L 29.671875 -61.078125 L 29.671875 -52.34375 L 13.09375 -52.34375 Z M 13.09375 -35.34375 "/></g></g></g><g fill="#ffffff" fill-opacity="1"><g transform="translate(111.962923, 73.405281)"><g><path d="M 2.265625 -46.421875 C 2.265625 -51.359375 3.441406 -55.148438 5.796875 -57.796875 C 8.148438 -60.441406 11.6875 -61.765625 16.40625 -61.765625 C 21.113281 -61.765625 24.644531 -60.441406 27 -57.796875 C 29.351562 -55.148438 30.53125 -51.359375 30.53125 -46.421875 L 30.53125 -44.0625 L 21.46875 -44.0625 L 21.46875 -47.03125 C 21.46875 -49.238281 21.046875 -50.789062 20.203125 -51.6875 C 19.359375 -52.59375 18.179688 -53.046875 16.671875 -53.046875 C 15.148438 -53.046875 13.96875 -52.59375 13.125 -51.6875 C 12.28125 -50.789062 11.859375 -49.238281 11.859375 -47.03125 C 11.859375 -44.9375 12.320312 -43.085938 13.25 -41.484375 C 14.1875 -39.890625 15.351562 -38.378906 16.75 -36.953125 C 18.144531 -35.523438 19.640625 -34.097656 21.234375 -32.671875 C 22.835938 -31.242188 24.335938 -29.6875 25.734375 -28 C 27.128906 -26.320312 28.289062 -24.40625 29.21875 -22.25 C 30.15625 -20.09375 30.625 -17.5625 30.625 -14.65625 C 30.625 -9.707031 29.414062 -5.910156 27 -3.265625 C 24.59375 -0.617188 21.03125 0.703125 16.3125 0.703125 C 11.601562 0.703125 8.039062 -0.617188 5.625 -3.265625 C 3.207031 -5.910156 2 -9.707031 2 -14.65625 L 2 -18.84375 L 11.078125 -18.84375 L 11.078125 -14.046875 C 11.078125 -11.835938 11.523438 -10.296875 12.421875 -9.421875 C 13.328125 -8.546875 14.535156 -8.109375 16.046875 -8.109375 C 17.566406 -8.109375 18.773438 -8.546875 19.671875 -9.421875 C 20.578125 -10.296875 21.03125 -11.835938 21.03125 -14.046875 C 21.03125 -16.140625 20.5625 -17.984375 19.625 -19.578125 C 18.695312 -21.179688 17.535156 -22.695312 16.140625 -24.125 C 14.742188 -25.550781 13.242188 -26.972656 11.640625 -28.390625 C 10.046875 -29.816406 8.550781 -31.375 7.15625 -33.0625 C 5.757812 -34.75 4.59375 -36.664062 3.65625 -38.8125 C 2.726562 -40.96875 2.265625 -43.503906 2.265625 -46.421875 Z M 2.265625 -46.421875 "/></g></g></g><g fill="#ffffff" fill-opacity="1"><g transform="translate(144.596819, 73.405281)"><g><path d="M 31.328125 -22.765625 L 31.328125 -14.65625 C 31.328125 -9.707031 30.117188 -5.910156 27.703125 -3.265625 C 25.285156 -0.617188 21.722656 0.703125 17.015625 0.703125 C 12.304688 0.703125 8.742188 -0.617188 6.328125 -3.265625 C 3.910156 -5.910156 2.703125 -9.707031 2.703125 -14.65625 L 2.703125 -46.421875 C 2.703125 -51.359375 3.910156 -55.148438 6.328125 -57.796875 C 8.742188 -60.441406 12.304688 -61.765625 17.015625 -61.765625 C 21.722656 -61.765625 25.285156 -60.441406 27.703125 -57.796875 C 30.117188 -55.148438 31.328125 -51.359375 31.328125 -46.421875 L 31.328125 -40.484375 L 22.25 -40.484375 L 22.25 -47.03125 C 22.25 -49.238281 21.796875 -50.789062 20.890625 -51.6875 C 19.992188 -52.59375 18.789062 -53.046875 17.28125 -53.046875 C 15.757812 -53.046875 14.546875 -52.59375 13.640625 -51.6875 C 12.742188 -50.789062 12.296875 -49.238281 12.296875 -47.03125 L 12.296875 -14.046875 C 12.296875 -11.835938 12.742188 -10.296875 13.640625 -9.421875 C 14.546875 -8.546875 15.757812 -8.109375 17.28125 -8.109375 C 18.789062 -8.109375 19.992188 -8.546875 20.890625 -9.421875 C 21.796875 -10.296875 22.25 -11.835938 22.25 -14.046875 L 22.25 -22.765625 Z M 31.328125 -22.765625 "/></g></g></g><g fill="#ffffff" fill-opacity="1"><g transform="translate(178.277763, 73.405281)"><g><path d="M 12.296875 -14.046875 C 12.296875 -11.835938 12.742188 -10.28125 13.640625 -9.375 C 14.546875 -8.476562 15.757812 -8.03125 17.28125 -8.03125 C 18.789062 -8.03125 19.992188 -8.476562 20.890625 -9.375 C 21.796875 -10.28125 22.25 -11.835938 22.25 -14.046875 L 22.25 -47.03125 C 22.25 -49.238281 21.796875 -50.789062 20.890625 -51.6875 C 19.992188 -52.59375 18.789062 -53.046875 17.28125 -53.046875 C 15.757812 -53.046875 14.546875 -52.59375 13.640625 -51.6875 C 12.742188 -50.789062 12.296875 -49.238281 12.296875 -47.03125 Z M 2.703125 -46.421875 C 2.703125 -51.359375 3.953125 -55.148438 6.453125 -57.796875 C 8.953125 -60.441406 12.5625 -61.765625 17.28125 -61.765625 C 21.988281 -61.765625 25.59375 -60.441406 28.09375 -57.796875 C 30.59375 -55.148438 31.84375 -51.359375 31.84375 -46.421875 L 31.84375 -14.65625 C 31.84375 -9.707031 30.59375 -5.910156 28.09375 -3.265625 C 25.59375 -0.617188 21.988281 0.703125 17.28125 0.703125 C 12.5625 0.703125 8.953125 -0.617188 6.453125 -3.265625 C 3.953125 -5.910156 2.703125 -9.707031 2.703125 -14.65625 Z M 2.703125 -46.421875 "/></g></g></g></g></g><g fill="#ffffff" fill-opacity="1"><g transform="translate(141.920812, 262.203572)"><g><path d="M 45.546875 -67.246094 C 47.21875 -67.535156 48.507812 -67.261719 49.40625 -66.425781 C 50.167969 -65.722656 50.664062 -64.695312 50.898438 -63.351562 C 51.261719 -61.261719 51.109375 -59.195312 50.445312 -57.15625 C 49.769531 -55.078125 48.550781 -53.289062 46.785156 -51.785156 C 45.027344 -50.285156 42.78125 -49.300781 40.046875 -48.824219 C 38.214844 -48.507812 36.5625 -48.441406 35.085938 -48.628906 C 33.738281 -48.800781 32.417969 -49.027344 31.125 -49.3125 C 29.957031 -49.566406 28.679688 -49.761719 27.289062 -49.890625 C 25.988281 -50.011719 24.398438 -49.910156 22.523438 -49.582031 C 20.585938 -49.246094 18.796875 -48.722656 17.164062 -48.011719 C 15.660156 -47.355469 14.523438 -46.566406 13.757812 -45.648438 C 13.164062 -44.933594 12.953125 -44.09375 13.121094 -43.128906 C 13.210938 -42.601562 13.414062 -42.207031 13.722656 -41.9375 C 13.921875 -41.761719 14.121094 -41.691406 14.3125 -41.726562 L 15.472656 -41.929688 L 16.125 -40.945312 C 16.816406 -39.898438 17.097656 -38.605469 16.960938 -37.074219 C 16.835938 -35.691406 16.375 -34.324219 15.578125 -32.976562 C 14.796875 -31.660156 13.71875 -30.484375 12.339844 -29.453125 C 10.925781 -28.390625 9.222656 -27.691406 7.238281 -27.34375 C 4.925781 -26.945312 2.859375 -27.167969 1.035156 -28.019531 C -0.757812 -28.855469 -2.207031 -30.113281 -3.320312 -31.796875 C -4.382812 -33.402344 -5.085938 -35.183594 -5.421875 -37.132812 C -6.078125 -40.898438 -5.441406 -44.574219 -3.515625 -48.164062 C -1.628906 -51.671875 1.46875 -54.742188 5.777344 -57.363281 C 10.003906 -59.9375 15.328125 -61.78125 21.746094 -62.894531 C 24.007812 -63.285156 25.929688 -63.570312 27.519531 -63.746094 L 31.941406 -64.222656 C 33.292969 -64.359375 34.75 -64.566406 36.316406 -64.839844 C 38.761719 -65.261719 40.609375 -65.707031 41.855469 -66.171875 C 43.308594 -66.710938 44.539062 -67.070312 45.546875 -67.246094 Z M 46.160156 -63.699219 C 45.371094 -63.5625 44.355469 -63.261719 43.109375 -62.796875 C 41.65625 -62.253906 39.597656 -61.753906 36.933594 -61.292969 C 35.285156 -61.003906 33.75 -60.789062 32.324219 -60.640625 L 27.917969 -60.167969 C 26.402344 -60 24.550781 -59.726562 22.363281 -59.347656 C 16.390625 -58.3125 11.488281 -56.625 7.652344 -54.289062 C 3.898438 -52.003906 1.234375 -49.394531 -0.34375 -46.460938 C -1.875 -43.601562 -2.386719 -40.695312 -1.875 -37.746094 C -1.621094 -36.292969 -1.101562 -34.96875 -0.316406 -33.78125 C 0.421875 -32.664062 1.378906 -31.832031 2.554688 -31.28125 C 3.699219 -30.75 5.054688 -30.621094 6.621094 -30.890625 C 8.042969 -31.136719 9.226562 -31.617188 10.183594 -32.335938 C 11.175781 -33.078125 11.945312 -33.90625 12.480469 -34.8125 C 13 -35.691406 13.300781 -36.550781 13.375 -37.394531 C 13.4375 -38.089844 13.351562 -38.613281 13.121094 -38.960938 L 14.621094 -39.953125 L 14.929688 -38.179688 C 13.613281 -37.953125 12.421875 -38.296875 11.359375 -39.21875 C 10.40625 -40.046875 9.8125 -41.144531 9.574219 -42.511719 C 9.214844 -44.570312 9.6875 -46.382812 10.992188 -47.949219 C 12.121094 -49.308594 13.699219 -50.425781 15.726562 -51.308594 C 17.625 -52.136719 19.683594 -52.742188 21.90625 -53.128906 C 24.097656 -53.511719 26.003906 -53.625 27.625 -53.472656 C 29.160156 -53.332031 30.582031 -53.117188 31.894531 -52.828125 C 33.082031 -52.566406 34.300781 -52.359375 35.542969 -52.199219 C 36.65625 -52.058594 37.953125 -52.113281 39.433594 -52.371094 C 41.519531 -52.734375 43.191406 -53.453125 44.449219 -54.523438 C 45.699219 -55.585938 46.554688 -56.835938 47.023438 -58.269531 C 47.503906 -59.742188 47.613281 -61.230469 47.351562 -62.734375 C 47.257812 -63.28125 47.125 -63.632812 46.957031 -63.789062 C 46.988281 -63.761719 47.015625 -63.742188 47.042969 -63.726562 C 47.035156 -63.734375 47.011719 -63.738281 46.976562 -63.742188 C 46.78125 -63.773438 46.511719 -63.757812 46.160156 -63.699219 Z M 38.578125 -38.777344 C 40.519531 -39.113281 41.96875 -38.910156 42.925781 -38.164062 C 43.824219 -37.460938 44.378906 -36.503906 44.589844 -35.289062 C 44.78125 -34.179688 44.65625 -32.988281 44.214844 -31.710938 C 43.769531 -30.421875 42.949219 -29.257812 41.75 -28.226562 C 40.546875 -27.183594 38.953125 -26.492188 36.96875 -26.148438 C 35.792969 -25.945312 34.679688 -25.789062 33.628906 -25.683594 C 32.609375 -25.578125 31.609375 -25.492188 30.628906 -25.421875 L 30.5 -27.21875 L 32.269531 -26.894531 C 32.09375 -25.929688 31.90625 -24.949219 31.710938 -23.957031 C 31.511719 -22.957031 31.300781 -21.964844 31.074219 -20.980469 C 29.425781 -13.792969 26.917969 -8.238281 23.539062 -4.320312 C 20.074219 -0.296875 15.910156 2.132812 11.039062 2.980469 C 7.464844 3.601562 4.410156 3.453125 1.875 2.539062 C -0.703125 1.613281 -2.71875 0.160156 -4.179688 -1.820312 C -5.589844 -3.730469 -6.488281 -5.796875 -6.871094 -8.015625 C -7.25 -10.203125 -7.175781 -12.375 -6.640625 -14.527344 C -6.097656 -16.726562 -5.109375 -18.621094 -3.683594 -20.199219 C -2.179688 -21.867188 -0.277344 -22.898438 2.019531 -23.296875 C 2.789062 -23.429688 3.460938 -23.339844 4.03125 -23.027344 C 4.738281 -22.636719 5.167969 -22.015625 5.316406 -21.164062 C 5.484375 -20.175781 6.015625 -19.445312 6.902344 -18.964844 C 7.933594 -18.40625 9.261719 -18.269531 10.882812 -18.550781 C 12.40625 -18.816406 14.042969 -19.6875 15.792969 -21.164062 C 17.554688 -22.648438 19 -24.867188 20.128906 -27.816406 L 21.808594 -27.171875 L 21.863281 -25.371094 C 21.566406 -25.363281 21.273438 -25.34375 20.980469 -25.3125 C 20.6875 -25.285156 20.394531 -25.246094 20.105469 -25.195312 C 18.671875 -24.945312 17.5 -25.238281 16.601562 -26.074219 C 15.839844 -26.777344 15.359375 -27.710938 15.160156 -28.867188 C 14.894531 -30.382812 15.171875 -31.742188 15.984375 -32.945312 C 16.816406 -34.167969 18.214844 -34.949219 20.179688 -35.292969 L 23.160156 -35.808594 L 23.46875 -34.035156 L 21.699219 -34.363281 C 22.023438 -36.117188 22.339844 -37.871094 22.640625 -39.621094 C 22.953125 -41.410156 23.289062 -43.109375 23.65625 -44.714844 L 25.410156 -44.3125 L 23.644531 -44.660156 C 23.980469 -46.347656 24.628906 -47.648438 25.597656 -48.566406 C 26.550781 -49.472656 27.726562 -50.046875 29.125 -50.289062 C 31.289062 -50.664062 32.898438 -50.339844 33.953125 -49.3125 C 35.003906 -48.289062 35.398438 -46.855469 35.144531 -45.003906 L 33.359375 -45.253906 L 35.148438 -45.046875 C 34.953125 -43.335938 34.734375 -41.683594 34.492188 -40.085938 C 34.253906 -38.496094 34 -36.917969 33.730469 -35.351562 L 31.957031 -35.65625 L 31.59375 -37.417969 C 33.105469 -37.730469 34.453125 -38 35.636719 -38.230469 C 36.828125 -38.460938 37.808594 -38.644531 38.578125 -38.777344 Z M 39.191406 -35.230469 C 38.445312 -35.101562 37.492188 -34.921875 36.324219 -34.695312 C 35.152344 -34.46875 33.820312 -34.199219 32.320312 -33.890625 L 29.738281 -33.359375 L 30.183594 -35.957031 C 30.445312 -37.503906 30.695312 -39.058594 30.933594 -40.621094 C 31.167969 -42.175781 31.378906 -43.789062 31.570312 -45.457031 L 31.574219 -45.480469 L 31.578125 -45.5 C 31.667969 -46.148438 31.621094 -46.558594 31.441406 -46.734375 C 31.410156 -46.765625 31.3125 -46.792969 31.148438 -46.816406 C 30.796875 -46.871094 30.328125 -46.84375 29.738281 -46.742188 C 29.058594 -46.625 28.503906 -46.363281 28.074219 -45.957031 C 27.664062 -45.5625 27.363281 -44.898438 27.175781 -43.960938 L 27.171875 -43.933594 L 27.167969 -43.910156 C 26.8125 -42.367188 26.488281 -40.734375 26.1875 -39.007812 C 25.882812 -37.242188 25.566406 -35.476562 25.238281 -33.707031 L 25.007812 -32.476562 L 20.796875 -31.746094 C 19.832031 -31.578125 19.222656 -31.304688 18.964844 -30.925781 C 18.695312 -30.527344 18.609375 -30.042969 18.707031 -29.480469 C 18.765625 -29.125 18.882812 -28.867188 19.050781 -28.710938 L 19.046875 -28.722656 C 19.148438 -28.699219 19.296875 -28.707031 19.492188 -28.742188 C 19.863281 -28.804688 20.242188 -28.855469 20.617188 -28.894531 C 20.996094 -28.933594 21.375 -28.957031 21.757812 -28.96875 L 24.460938 -29.050781 L 23.492188 -26.527344 C 22.140625 -23.003906 20.347656 -20.296875 18.113281 -18.410156 C 15.871094 -16.515625 13.664062 -15.378906 11.5 -15.003906 C 9.054688 -14.578125 6.953125 -14.84375 5.1875 -15.796875 C 3.277344 -16.832031 2.136719 -18.414062 1.765625 -20.550781 C 1.816406 -20.265625 1.992188 -20.039062 2.296875 -19.871094 C 2.417969 -19.804688 2.53125 -19.769531 2.644531 -19.757812 L 2.636719 -19.75 C 1.152344 -19.492188 -0.0625 -18.839844 -1.011719 -17.789062 C -2.035156 -16.652344 -2.746094 -15.277344 -3.148438 -13.660156 C -3.558594 -12 -3.617188 -10.320312 -3.324219 -8.628906 C -3.035156 -6.96875 -2.355469 -5.414062 -1.28125 -3.957031 C -0.253906 -2.566406 1.203125 -1.527344 3.097656 -0.847656 C 5.03125 -0.148438 7.472656 -0.0546875 10.425781 -0.566406 C 14.445312 -1.265625 17.910156 -3.300781 20.8125 -6.667969 C 23.800781 -10.136719 26.050781 -15.179688 27.566406 -21.789062 C 27.78125 -22.734375 27.988281 -23.691406 28.179688 -24.65625 C 28.371094 -25.632812 28.554688 -26.59375 28.726562 -27.542969 L 28.980469 -28.910156 L 30.367188 -29.011719 C 31.3125 -29.082031 32.28125 -29.164062 33.269531 -29.265625 C 34.230469 -29.363281 35.261719 -29.503906 36.351562 -29.695312 C 37.679688 -29.925781 38.695312 -30.34375 39.398438 -30.949219 C 40.105469 -31.5625 40.578125 -32.207031 40.8125 -32.886719 C 41.050781 -33.578125 41.128906 -34.175781 41.042969 -34.675781 C 40.988281 -34.976562 40.878906 -35.191406 40.707031 -35.328125 C 40.726562 -35.3125 40.746094 -35.296875 40.765625 -35.289062 L 40.761719 -35.289062 C 40.707031 -35.308594 40.625 -35.320312 40.523438 -35.332031 C 40.191406 -35.359375 39.746094 -35.328125 39.191406 -35.230469 Z M 39.191406 -35.230469 "/></g></g></g><g fill="#ffffff" fill-opacity="1"><g transform="translate(189.308131, 253.9777)"><g><path d="M 7.90625 -39.078125 C 5.875 -38.726562 4.03125 -38.871094 2.363281 -39.507812 C 0.371094 -40.273438 -0.847656 -41.933594 -1.292969 -44.5 C -1.839844 -47.640625 -1.257812 -50.015625 0.445312 -51.621094 C 1.941406 -53.035156 3.839844 -53.9375 6.132812 -54.335938 C 8.277344 -54.710938 10.207031 -54.535156 11.925781 -53.8125 C 13.984375 -52.945312 15.144531 -51.023438 15.402344 -48.046875 C 15.640625 -45.25 14.957031 -43.109375 13.347656 -41.628906 C 11.910156 -40.308594 10.097656 -39.460938 7.90625 -39.078125 Z M 7.289062 -42.625 C 8.785156 -42.886719 9.992188 -43.4375 10.910156 -44.28125 C 11.652344 -44.964844 11.953125 -46.113281 11.816406 -47.734375 C 11.683594 -49.269531 11.253906 -50.1875 10.527344 -50.492188 C 9.457031 -50.941406 8.199219 -51.042969 6.75 -50.789062 C 5.164062 -50.515625 3.886719 -49.917969 2.914062 -49.003906 C 2.148438 -48.28125 1.929688 -46.984375 2.253906 -45.113281 C 2.464844 -43.894531 2.929688 -43.144531 3.652344 -42.871094 C 4.699219 -42.46875 5.910156 -42.386719 7.289062 -42.625 Z M 6.691406 0.664062 C 3.644531 1.195312 1.25 0.414062 -0.484375 -1.671875 C -1.984375 -3.472656 -2.972656 -5.761719 -3.453125 -8.535156 C -3.761719 -10.296875 -3.90625 -12.179688 -3.894531 -14.1875 C -3.882812 -16.160156 -3.761719 -18.082031 -3.527344 -19.945312 C -2.75 -25.523438 -1.796875 -29.890625 -0.675781 -33.042969 C 0.636719 -36.742188 2.65625 -38.828125 5.382812 -39.300781 C 6.773438 -39.542969 7.9375 -39.226562 8.867188 -38.355469 C 9.65625 -37.621094 10.175781 -36.519531 10.429688 -35.058594 C 10.710938 -33.433594 10.691406 -31.722656 10.367188 -29.929688 L 9.535156 -25.257812 C 9.304688 -23.933594 9.28125 -22.738281 9.464844 -21.667969 C 9.585938 -20.972656 9.789062 -20.527344 10.078125 -20.324219 C 10.363281 -20.121094 10.738281 -20.058594 11.191406 -20.140625 C 11.824219 -20.25 12.308594 -20.515625 12.640625 -20.941406 C 13.171875 -21.617188 13.671875 -22.472656 14.140625 -23.507812 C 14.417969 -24.132812 14.8125 -24.617188 15.332031 -24.960938 C 15.890625 -25.332031 16.527344 -25.496094 17.238281 -25.449219 C 18.261719 -25.382812 19.167969 -25.003906 19.964844 -24.308594 C 20.441406 -23.894531 20.769531 -23.429688 20.957031 -22.914062 C 21.1875 -22.289062 21.1875 -21.660156 20.96875 -21.023438 L 20.953125 -20.976562 L 20.933594 -20.933594 C 20.625 -20.171875 20.28125 -19.066406 19.910156 -17.613281 C 19.507812 -16.042969 18.992188 -14.328125 18.367188 -12.472656 C 17.722656 -10.570312 16.929688 -8.730469 15.984375 -6.949219 C 14.992188 -5.085938 13.773438 -3.472656 12.332031 -2.113281 C 10.773438 -0.644531 8.890625 0.285156 6.691406 0.664062 Z M 6.078125 -2.882812 C 7.566406 -3.140625 8.828125 -3.757812 9.863281 -4.734375 C 11.015625 -5.824219 12 -7.125 12.804688 -8.644531 C 13.660156 -10.246094 14.375 -11.90625 14.957031 -13.625 C 15.554688 -15.394531 16.042969 -17.023438 16.421875 -18.507812 C 16.835938 -20.117188 17.226562 -21.378906 17.601562 -22.292969 L 19.265625 -21.613281 L 17.566406 -22.207031 C 17.507812 -22.035156 17.511719 -21.859375 17.574219 -21.683594 C 17.59375 -21.628906 17.617188 -21.585938 17.640625 -21.554688 C 17.636719 -21.5625 17.621094 -21.574219 17.59375 -21.597656 C 17.414062 -21.757812 17.21875 -21.84375 17.007812 -21.855469 C 17.101562 -21.851562 17.207031 -21.886719 17.320312 -21.960938 C 17.371094 -21.992188 17.410156 -22.027344 17.4375 -22.066406 C 17.441406 -22.070312 17.445312 -22.074219 17.445312 -22.074219 C 17.441406 -22.0625 17.429688 -22.046875 17.417969 -22.015625 C 16.832031 -20.722656 16.183594 -19.625 15.476562 -18.722656 C 14.574219 -17.570312 13.351562 -16.859375 11.808594 -16.59375 C 10.371094 -16.34375 9.105469 -16.605469 8.003906 -17.378906 C 6.90625 -18.15625 6.210938 -19.378906 5.917969 -21.050781 C 5.660156 -22.535156 5.6875 -24.148438 5.992188 -25.886719 L 6.824219 -30.566406 C 7.074219 -31.941406 7.09375 -33.234375 6.882812 -34.445312 C 6.765625 -35.113281 6.609375 -35.539062 6.40625 -35.726562 C 6.351562 -35.78125 6.214844 -35.789062 5.996094 -35.753906 C 4.65625 -35.519531 3.558594 -34.214844 2.714844 -31.835938 C 1.675781 -28.914062 0.785156 -24.800781 0.0429688 -19.496094 C -0.171875 -17.773438 -0.285156 -16 -0.296875 -14.167969 C -0.304688 -12.375 -0.175781 -10.699219 0.09375 -9.152344 C 0.464844 -7.007812 1.195312 -5.28125 2.28125 -3.972656 C 3.132812 -2.953125 4.394531 -2.589844 6.078125 -2.882812 Z M 6.078125 -2.882812 "/></g></g></g><g fill="#ffffff" fill-opacity="1"><g transform="translate(206.759143, 250.948413)"><g><path d="M 7.472656 0.53125 C 4.242188 1.089844 1.640625 0.464844 -0.332031 -1.351562 C -2.167969 -3.039062 -3.347656 -5.398438 -3.875 -8.425781 C -4.363281 -11.246094 -4.335938 -14.363281 -3.789062 -17.765625 C -3.484375 -19.679688 -3.132812 -21.75 -2.734375 -23.972656 L -1.433594 -31.214844 L 0.335938 -30.898438 L 0.644531 -29.125 C -0.886719 -28.859375 -2.171875 -29.09375 -3.21875 -29.828125 C -4.140625 -30.476562 -4.8125 -31.316406 -5.238281 -32.339844 C -5.65625 -33.335938 -5.808594 -34.28125 -5.695312 -35.167969 C -5.621094 -35.777344 -5.421875 -36.292969 -5.097656 -36.714844 C -4.6875 -37.246094 -4.148438 -37.574219 -3.472656 -37.6875 C -1.875 -37.964844 -0.726562 -38.589844 -0.0351562 -39.554688 C 0.789062 -40.699219 1.304688 -41.820312 1.507812 -42.914062 L 1.511719 -42.945312 L 1.519531 -42.972656 C 2.085938 -45.558594 2.855469 -47.316406 3.828125 -48.253906 C 4.800781 -49.191406 5.917969 -49.769531 7.179688 -49.988281 C 8.203125 -50.167969 9.113281 -50.078125 9.90625 -49.722656 C 10.761719 -49.339844 11.417969 -48.695312 11.871094 -47.78125 C 12.605469 -46.308594 12.554688 -44.140625 11.722656 -41.277344 L 9.992188 -41.78125 L 11.734375 -41.320312 C 11.464844 -40.300781 11.347656 -39.597656 11.382812 -39.210938 C 11.378906 -39.28125 11.351562 -39.363281 11.304688 -39.457031 C 11.214844 -39.636719 11.085938 -39.785156 10.910156 -39.90625 C 10.761719 -40.003906 10.609375 -40.0625 10.449219 -40.085938 C 10.414062 -40.089844 10.382812 -40.089844 10.355469 -40.089844 L 10.359375 -40.089844 L 14.046875 -40.730469 C 14.800781 -40.863281 15.476562 -40.699219 16.074219 -40.242188 C 16.519531 -39.902344 16.867188 -39.421875 17.121094 -38.796875 C 17.46875 -37.933594 17.632812 -36.9375 17.609375 -35.8125 C 17.585938 -34.6875 17.359375 -33.640625 16.921875 -32.675781 C 16.324219 -31.355469 15.359375 -30.582031 14.023438 -30.351562 C 11.941406 -29.988281 10.441406 -29.648438 9.519531 -29.335938 C 9.015625 -29.164062 8.710938 -28.957031 8.609375 -28.714844 C 8.367188 -28.136719 8.15625 -27.089844 7.984375 -25.570312 C 7.722656 -23.527344 8.011719 -22.0625 8.84375 -21.179688 C 9.628906 -20.347656 10.742188 -20.058594 12.1875 -20.3125 C 13.289062 -20.503906 14.21875 -20.910156 14.972656 -21.539062 C 15.75 -22.1875 16.34375 -22.984375 16.75 -23.929688 C 17.042969 -24.589844 17.457031 -25.089844 17.988281 -25.425781 C 18.5625 -25.792969 19.210938 -25.9375 19.933594 -25.863281 C 20.921875 -25.765625 21.796875 -25.394531 22.5625 -24.757812 C 23.054688 -24.347656 23.398438 -23.875 23.589844 -23.335938 C 23.804688 -22.734375 23.820312 -22.117188 23.628906 -21.480469 L 23.621094 -21.460938 L 23.617188 -21.441406 C 23.335938 -20.574219 22.964844 -19.378906 22.503906 -17.851562 C 22.027344 -16.265625 21.429688 -14.535156 20.707031 -12.664062 C 19.957031 -10.730469 19.019531 -8.863281 17.886719 -7.070312 C 16.710938 -5.207031 15.292969 -3.597656 13.625 -2.234375 C 11.867188 -0.796875 9.816406 0.121094 7.472656 0.53125 Z M 6.855469 -3.015625 C 8.582031 -3.316406 10.078125 -3.984375 11.347656 -5.023438 C 12.710938 -6.136719 13.875 -7.457031 14.839844 -8.988281 C 15.847656 -10.585938 16.683594 -12.246094 17.347656 -13.960938 C 18.039062 -15.746094 18.605469 -17.390625 19.058594 -18.886719 C 19.523438 -20.441406 19.902344 -21.664062 20.191406 -22.554688 L 21.90625 -22 L 20.179688 -22.515625 C 20.144531 -22.394531 20.152344 -22.261719 20.203125 -22.117188 C 20.222656 -22.0625 20.246094 -22.015625 20.273438 -21.980469 C 20.28125 -21.972656 20.28125 -21.96875 20.285156 -21.96875 C 20.277344 -21.972656 20.269531 -21.980469 20.257812 -21.992188 C 20.054688 -22.160156 19.828125 -22.257812 19.570312 -22.28125 C 19.675781 -22.273438 19.789062 -22.304688 19.914062 -22.386719 C 19.972656 -22.421875 20.019531 -22.464844 20.054688 -22.507812 C 20.0625 -22.515625 20.066406 -22.519531 20.066406 -22.523438 C 20.0625 -22.515625 20.058594 -22.511719 20.058594 -22.507812 C 19.421875 -21.03125 18.496094 -19.785156 17.273438 -18.769531 C 16.027344 -17.734375 14.535156 -17.066406 12.800781 -16.765625 C 10.085938 -16.292969 7.894531 -16.941406 6.226562 -18.707031 C 4.613281 -20.417969 4.007812 -22.84375 4.40625 -25.980469 C 4.621094 -27.839844 4.914062 -29.21875 5.292969 -30.113281 C 5.8125 -31.34375 6.832031 -32.21875 8.351562 -32.742188 C 9.453125 -33.117188 11.140625 -33.503906 13.40625 -33.898438 C 13.492188 -33.910156 13.570312 -34 13.640625 -34.160156 C 13.875 -34.675781 13.996094 -35.25 14.011719 -35.882812 C 14.023438 -36.519531 13.945312 -37.042969 13.78125 -37.453125 C 13.765625 -37.492188 13.753906 -37.515625 13.75 -37.523438 C 13.78125 -37.476562 13.832031 -37.425781 13.894531 -37.378906 C 14.128906 -37.199219 14.386719 -37.136719 14.664062 -37.183594 L 10.976562 -36.542969 C 10.167969 -36.402344 9.476562 -36.527344 8.894531 -36.921875 C 8.246094 -37.359375 7.878906 -38.011719 7.800781 -38.878906 C 7.722656 -39.6875 7.875 -40.808594 8.253906 -42.238281 L 8.257812 -42.261719 L 8.265625 -42.285156 C 8.578125 -43.355469 8.75 -44.253906 8.789062 -44.980469 C 8.816406 -45.535156 8.769531 -45.933594 8.648438 -46.175781 C 8.578125 -46.320312 8.507812 -46.402344 8.441406 -46.433594 C 8.3125 -46.492188 8.097656 -46.492188 7.796875 -46.441406 C 7.257812 -46.347656 6.769531 -46.085938 6.324219 -45.660156 C 5.875 -45.226562 5.445312 -44.074219 5.035156 -42.203125 L 3.277344 -42.585938 L 5.046875 -42.261719 C 4.746094 -40.636719 4.027344 -39.035156 2.890625 -37.453125 C 1.621094 -35.691406 -0.292969 -34.585938 -2.859375 -34.140625 C -2.609375 -34.183594 -2.40625 -34.3125 -2.242188 -34.519531 C -2.191406 -34.589844 -2.152344 -34.65625 -2.128906 -34.722656 L -2.125 -34.722656 C -2.15625 -34.46875 -2.085938 -34.132812 -1.914062 -33.722656 C -1.757812 -33.339844 -1.5 -33.019531 -1.144531 -32.773438 C -0.914062 -32.609375 -0.523438 -32.574219 0.0273438 -32.671875 L 2.5625 -33.109375 L 0.808594 -23.339844 C 0.414062 -21.136719 0.0664062 -19.089844 -0.234375 -17.195312 C -0.71875 -14.1875 -0.75 -11.46875 -0.328125 -9.042969 C 0.0585938 -6.816406 0.871094 -5.136719 2.105469 -4 C 3.207031 -2.984375 4.792969 -2.660156 6.855469 -3.015625 Z M 6.855469 -3.015625 "/></g></g></g><g fill="#146614" fill-opacity="1"><g transform="translate(141.920812, 262.203572)"><g><path d="M 45.859375 -65.46875 C 46.941406 -65.65625 47.710938 -65.535156 48.171875 -65.109375 C 48.640625 -64.679688 48.957031 -63.992188 49.125 -63.046875 C 49.4375 -61.242188 49.304688 -59.460938 48.734375 -57.703125 C 48.171875 -55.953125 47.132812 -54.4375 45.625 -53.15625 C 44.113281 -51.875 42.15625 -51.019531 39.75 -50.59375 C 38.082031 -50.3125 36.601562 -50.25 35.3125 -50.40625 C 34.019531 -50.570312 32.75 -50.789062 31.5 -51.0625 C 30.257812 -51.332031 28.910156 -51.535156 27.453125 -51.671875 C 25.992188 -51.816406 24.25 -51.710938 22.21875 -51.359375 C 20.132812 -50.992188 18.207031 -50.425781 16.4375 -49.65625 C 14.675781 -48.894531 13.320312 -47.941406 12.375 -46.796875 C 11.425781 -45.648438 11.082031 -44.320312 11.34375 -42.8125 C 11.507812 -41.863281 11.910156 -41.113281 12.546875 -40.5625 C 13.179688 -40.019531 13.875 -39.8125 14.625 -39.9375 C 15.082031 -39.25 15.257812 -38.34375 15.15625 -37.21875 C 15.0625 -36.101562 14.6875 -34.988281 14.03125 -33.875 C 13.375 -32.769531 12.453125 -31.773438 11.265625 -30.890625 C 10.078125 -30.003906 8.632812 -29.410156 6.9375 -29.109375 C 5 -28.773438 3.285156 -28.953125 1.796875 -29.640625 C 0.304688 -30.335938 -0.894531 -31.382812 -1.8125 -32.78125 C -2.738281 -34.1875 -3.351562 -35.742188 -3.65625 -37.453125 C -4.238281 -40.804688 -3.660156 -44.09375 -1.921875 -47.3125 C -0.191406 -50.539062 2.6875 -53.378906 6.71875 -55.828125 C 10.75 -58.285156 15.863281 -60.050781 22.0625 -61.125 C 24.269531 -61.507812 26.148438 -61.785156 27.703125 -61.953125 C 29.265625 -62.128906 30.738281 -62.285156 32.125 -62.421875 C 33.507812 -62.566406 35.007812 -62.78125 36.625 -63.0625 C 39.175781 -63.507812 41.128906 -63.984375 42.484375 -64.484375 C 43.835938 -64.984375 44.960938 -65.3125 45.859375 -65.46875 Z M 38.890625 -37.015625 C 40.304688 -37.253906 41.28125 -37.160156 41.8125 -36.734375 C 42.351562 -36.316406 42.691406 -35.726562 42.828125 -34.96875 C 42.960938 -34.175781 42.859375 -33.285156 42.515625 -32.296875 C 42.171875 -31.316406 41.523438 -30.410156 40.578125 -29.578125 C 39.628906 -28.753906 38.320312 -28.203125 36.65625 -27.921875 C 35.53125 -27.722656 34.460938 -27.570312 33.453125 -27.46875 C 32.441406 -27.375 31.457031 -27.289062 30.5 -27.21875 C 30.332031 -26.257812 30.148438 -25.289062 29.953125 -24.3125 C 29.753906 -23.332031 29.539062 -22.359375 29.3125 -21.390625 C 27.726562 -14.484375 25.347656 -9.179688 22.171875 -5.484375 C 18.992188 -1.796875 15.179688 0.429688 10.734375 1.203125 C 7.472656 1.773438 4.722656 1.65625 2.484375 0.84375 C 0.253906 0.0390625 -1.476562 -1.203125 -2.71875 -2.890625 C -3.96875 -4.578125 -4.757812 -6.390625 -5.09375 -8.328125 C -5.4375 -10.273438 -5.367188 -12.203125 -4.890625 -14.109375 C -4.421875 -16.015625 -3.570312 -17.644531 -2.34375 -19 C -1.125 -20.351562 0.425781 -21.191406 2.3125 -21.515625 C 3.03125 -21.640625 3.441406 -21.414062 3.546875 -20.84375 C 3.816406 -19.28125 4.648438 -18.117188 6.046875 -17.359375 C 7.441406 -16.609375 9.15625 -16.410156 11.1875 -16.765625 C 13.03125 -17.085938 14.953125 -18.09375 16.953125 -19.78125 C 18.953125 -21.46875 20.570312 -23.929688 21.8125 -27.171875 C 21.46875 -27.148438 21.128906 -27.125 20.796875 -27.09375 C 20.460938 -27.070312 20.128906 -27.03125 19.796875 -26.96875 C 18.941406 -26.820312 18.285156 -26.960938 17.828125 -27.390625 C 17.367188 -27.828125 17.070312 -28.421875 16.9375 -29.171875 C 16.757812 -30.210938 16.941406 -31.128906 17.484375 -31.921875 C 18.023438 -32.722656 19.03125 -33.253906 20.5 -33.515625 L 23.46875 -34.03125 C 23.789062 -35.800781 24.101562 -37.5625 24.40625 -39.3125 C 24.71875 -41.070312 25.050781 -42.738281 25.40625 -44.3125 C 25.675781 -45.625 26.15625 -46.609375 26.84375 -47.265625 C 27.53125 -47.921875 28.394531 -48.335938 29.4375 -48.515625 C 31 -48.785156 32.085938 -48.625 32.703125 -48.03125 C 33.316406 -47.4375 33.539062 -46.503906 33.375 -45.234375 C 33.164062 -43.566406 32.941406 -41.941406 32.703125 -40.359375 C 32.472656 -38.773438 32.222656 -37.203125 31.953125 -35.640625 C 33.460938 -35.960938 34.804688 -36.238281 35.984375 -36.46875 C 37.160156 -36.695312 38.128906 -36.878906 38.890625 -37.015625 Z M 38.890625 -37.015625 "/></g></g></g><g fill="#146614" fill-opacity="1"><g transform="translate(189.308131, 253.9777)"><g><path d="M 7.59375 -40.84375 C 5.894531 -40.550781 4.363281 -40.664062 3 -41.1875 C 1.644531 -41.707031 0.804688 -42.910156 0.484375 -44.796875 C 0.046875 -47.304688 0.441406 -49.144531 1.671875 -50.3125 C 2.910156 -51.476562 4.503906 -52.226562 6.453125 -52.5625 C 8.242188 -52.875 9.832031 -52.734375 11.21875 -52.140625 C 12.613281 -51.554688 13.410156 -50.140625 13.609375 -47.890625 C 13.796875 -45.679688 13.300781 -44.035156 12.125 -42.953125 C 10.957031 -41.867188 9.445312 -41.164062 7.59375 -40.84375 Z M 6.390625 -1.109375 C 4.015625 -0.691406 2.179688 -1.257812 0.890625 -2.8125 C -0.390625 -4.363281 -1.25 -6.375 -1.6875 -8.84375 C -1.96875 -10.488281 -2.101562 -12.265625 -2.09375 -14.171875 C -2.09375 -16.078125 -1.976562 -17.925781 -1.75 -19.71875 C -0.988281 -25.164062 -0.0664062 -29.40625 1.015625 -32.4375 C 2.097656 -35.476562 3.660156 -37.175781 5.703125 -37.53125 C 7.296875 -37.800781 8.273438 -36.875 8.640625 -34.75 C 8.890625 -33.320312 8.875 -31.816406 8.59375 -30.234375 C 8.3125 -28.648438 8.035156 -27.09375 7.765625 -25.5625 C 7.492188 -24.039062 7.46875 -22.640625 7.6875 -21.359375 C 7.894531 -20.171875 8.347656 -19.332031 9.046875 -18.84375 C 9.742188 -18.363281 10.5625 -18.203125 11.5 -18.359375 C 12.59375 -18.546875 13.445312 -19.035156 14.0625 -19.828125 C 14.675781 -20.617188 15.25 -21.597656 15.78125 -22.765625 C 16.0625 -23.398438 16.503906 -23.695312 17.109375 -23.65625 C 17.722656 -23.613281 18.273438 -23.375 18.765625 -22.9375 C 19.265625 -22.507812 19.4375 -22.066406 19.28125 -21.609375 C 18.925781 -20.765625 18.550781 -19.578125 18.15625 -18.046875 C 17.769531 -16.523438 17.269531 -14.859375 16.65625 -13.046875 C 16.050781 -11.234375 15.296875 -9.476562 14.390625 -7.78125 C 13.492188 -6.09375 12.394531 -4.640625 11.09375 -3.421875 C 9.789062 -2.203125 8.222656 -1.429688 6.390625 -1.109375 Z M 6.390625 -1.109375 "/></g></g></g><g fill="#146614" fill-opacity="1"><g transform="translate(206.759143, 250.948413)"><g><path d="M 7.15625 -1.25 C 4.507812 -0.78125 2.421875 -1.253906 0.890625 -2.671875 C -0.640625 -4.085938 -1.632812 -6.109375 -2.09375 -8.734375 C -2.550781 -11.359375 -2.519531 -14.269531 -2 -17.46875 C -1.707031 -19.375 -1.363281 -21.4375 -0.96875 -23.65625 C -0.570312 -25.875 -0.140625 -28.285156 0.328125 -30.890625 C -0.710938 -30.710938 -1.550781 -30.847656 -2.1875 -31.296875 C -2.820312 -31.753906 -3.285156 -32.332031 -3.578125 -33.03125 C -3.867188 -33.738281 -3.976562 -34.375 -3.90625 -34.9375 C -3.832031 -35.507812 -3.582031 -35.832031 -3.15625 -35.90625 C -1.082031 -36.269531 0.441406 -37.132812 1.421875 -38.5 C 2.410156 -39.863281 3.03125 -41.226562 3.28125 -42.59375 C 3.769531 -44.8125 4.367188 -46.257812 5.078125 -46.9375 C 5.785156 -47.625 6.585938 -48.046875 7.484375 -48.203125 C 8.804688 -48.429688 9.726562 -48.019531 10.25 -46.96875 C 10.769531 -45.925781 10.679688 -44.195312 9.984375 -41.78125 C 9.671875 -40.550781 9.539062 -39.632812 9.59375 -39.03125 C 9.65625 -38.4375 10.015625 -38.195312 10.671875 -38.3125 L 14.359375 -38.953125 C 14.835938 -39.035156 15.203125 -38.753906 15.453125 -38.109375 C 15.703125 -37.472656 15.816406 -36.710938 15.796875 -35.828125 C 15.785156 -34.953125 15.613281 -34.144531 15.28125 -33.40625 C 14.945312 -32.664062 14.425781 -32.234375 13.71875 -32.109375 C 11.539062 -31.734375 9.945312 -31.375 8.9375 -31.03125 C 7.925781 -30.6875 7.265625 -30.144531 6.953125 -29.40625 C 6.640625 -28.675781 6.390625 -27.46875 6.203125 -25.78125 C 5.867188 -23.1875 6.3125 -21.238281 7.53125 -19.9375 C 8.757812 -18.644531 10.414062 -18.175781 12.5 -18.53125 C 13.914062 -18.78125 15.125 -19.320312 16.125 -20.15625 C 17.125 -20.988281 17.882812 -22.007812 18.40625 -23.21875 C 18.695312 -23.851562 19.148438 -24.140625 19.765625 -24.078125 C 20.378906 -24.015625 20.925781 -23.773438 21.40625 -23.359375 C 21.894531 -22.953125 22.0625 -22.492188 21.90625 -21.984375 C 21.625 -21.109375 21.25 -19.898438 20.78125 -18.359375 C 20.3125 -16.828125 19.726562 -15.144531 19.03125 -13.3125 C 18.332031 -11.488281 17.445312 -9.722656 16.375 -8.015625 C 15.300781 -6.316406 14.003906 -4.851562 12.484375 -3.625 C 10.972656 -2.394531 9.195312 -1.601562 7.15625 -1.25 Z M 7.15625 -1.25 "/></g></g></g><g fill="#146614" fill-opacity="1"><g transform="translate(140.199083, 277.592825)"><g><path d="M 3.125 -4.65625 L 5.59375 -3.296875 L 4.921875 -2.078125 L 2.453125 -3.4375 Z M 3.125 -4.65625 "/></g></g></g><g fill="#146614" fill-opacity="1"><g transform="translate(146.167388, 280.756628)"><g/></g></g><g fill="#146614" fill-opacity="1"><g transform="translate(150.861452, 282.925129)"><g><path d="M 3.03125 -6.8125 C 3.320312 -7.550781 3.71875 -8.046875 4.21875 -8.296875 C 4.726562 -8.554688 5.335938 -8.550781 6.046875 -8.28125 C 6.753906 -8 7.207031 -7.59375 7.40625 -7.0625 C 7.613281 -6.53125 7.570312 -5.894531 7.28125 -5.15625 L 7.140625 -4.796875 L 5.765625 -5.328125 L 5.953125 -5.78125 C 6.078125 -6.113281 6.101562 -6.367188 6.03125 -6.546875 C 5.957031 -6.734375 5.804688 -6.875 5.578125 -6.96875 C 5.359375 -7.050781 5.160156 -7.050781 4.984375 -6.96875 C 4.804688 -6.882812 4.65625 -6.675781 4.53125 -6.34375 C 4.40625 -6.03125 4.363281 -5.722656 4.40625 -5.421875 C 4.457031 -5.128906 4.546875 -4.835938 4.671875 -4.546875 C 4.796875 -4.253906 4.929688 -3.957031 5.078125 -3.65625 C 5.234375 -3.351562 5.363281 -3.03125 5.46875 -2.6875 C 5.582031 -2.351562 5.644531 -2 5.65625 -1.625 C 5.675781 -1.25 5.601562 -0.847656 5.4375 -0.421875 C 5.144531 0.328125 4.738281 0.828125 4.21875 1.078125 C 3.707031 1.335938 3.101562 1.332031 2.40625 1.0625 C 1.6875 0.789062 1.226562 0.390625 1.03125 -0.140625 C 0.832031 -0.679688 0.878906 -1.328125 1.171875 -2.078125 L 1.421875 -2.703125 L 2.765625 -2.1875 L 2.46875 -1.453125 C 2.34375 -1.117188 2.320312 -0.859375 2.40625 -0.671875 C 2.488281 -0.484375 2.644531 -0.347656 2.875 -0.265625 C 3.09375 -0.179688 3.296875 -0.175781 3.484375 -0.25 C 3.671875 -0.320312 3.828125 -0.523438 3.953125 -0.859375 C 4.078125 -1.179688 4.113281 -1.488281 4.0625 -1.78125 C 4.019531 -2.082031 3.9375 -2.378906 3.8125 -2.671875 C 3.6875 -2.972656 3.546875 -3.273438 3.390625 -3.578125 C 3.234375 -3.878906 3.097656 -4.195312 2.984375 -4.53125 C 2.878906 -4.863281 2.816406 -5.21875 2.796875 -5.59375 C 2.785156 -5.96875 2.863281 -6.375 3.03125 -6.8125 Z M 3.03125 -6.8125 "/></g></g></g><g fill="#146614" fill-opacity="1"><g transform="translate(158.59306, 285.774925)"><g><path d="M 3.421875 -9.1875 L 4.890625 -8.75 L 2 0.609375 L 0.53125 0.171875 Z M 3.421875 -9.1875 "/></g></g></g><g fill="#146614" fill-opacity="1"><g transform="translate(164.036083, 287.39794)"><g><path d="M 3.453125 -6.5 L 1.890625 0.421875 L 0.53125 0.125 L 2.6875 -9.4375 L 4.578125 -9.015625 L 4.828125 -2.953125 L 6.125 -8.671875 L 7.453125 -8.359375 L 5.296875 1.203125 L 3.75 0.84375 Z M 3.453125 -6.5 "/></g></g></g><g fill="#146614" fill-opacity="1"><g transform="translate(172.883799, 289.237003)"><g><path d="M 5.453125 -2.96875 L 5.296875 -1.6875 C 5.191406 -0.882812 4.914062 -0.300781 4.46875 0.0625 C 4.03125 0.425781 3.441406 0.5625 2.703125 0.46875 C 1.941406 0.363281 1.398438 0.0820312 1.078125 -0.375 C 0.753906 -0.84375 0.644531 -1.476562 0.75 -2.28125 L 1.40625 -7.328125 C 1.507812 -8.109375 1.773438 -8.6875 2.203125 -9.0625 C 2.640625 -9.4375 3.238281 -9.570312 4 -9.46875 C 4.738281 -9.375 5.273438 -9.085938 5.609375 -8.609375 C 5.941406 -8.140625 6.054688 -7.515625 5.953125 -6.734375 L 5.828125 -5.78125 L 4.375 -5.96875 L 4.515625 -7.015625 C 4.554688 -7.367188 4.515625 -7.625 4.390625 -7.78125 C 4.273438 -7.945312 4.097656 -8.046875 3.859375 -8.078125 C 3.617188 -8.109375 3.414062 -8.0625 3.25 -7.9375 C 3.082031 -7.820312 2.976562 -7.585938 2.9375 -7.234375 L 2.25 -1.984375 C 2.195312 -1.628906 2.234375 -1.367188 2.359375 -1.203125 C 2.492188 -1.046875 2.679688 -0.953125 2.921875 -0.921875 C 3.160156 -0.890625 3.359375 -0.929688 3.515625 -1.046875 C 3.671875 -1.171875 3.773438 -1.410156 3.828125 -1.765625 L 4 -3.15625 Z M 5.453125 -2.96875 "/></g></g></g><g fill="#146614" fill-opacity="1"><g transform="translate(181.279724, 290.194897)"><g><path d="M 2.328125 -5.578125 L 4.453125 -5.5 L 4.40625 -4.09375 L 2.28125 -4.171875 L 2.15625 -1.3125 L 4.828125 -1.203125 L 4.765625 0.203125 L 0.5625 0.03125 L 0.984375 -9.75 L 5.1875 -9.578125 L 5.125 -8.203125 L 2.453125 -8.3125 Z M 2.328125 -5.578125 "/></g></g></g><g fill="#146614" fill-opacity="1"><g transform="translate(189.424563, 290.385165)"><g/></g></g><g fill="#146614" fill-opacity="1"><g transform="translate(194.596615, 290.195938)"><g><path d="M 2.859375 -7.71875 C 2.816406 -8.144531 2.710938 -8.425781 2.546875 -8.5625 C 2.390625 -8.707031 2.191406 -8.769531 1.953125 -8.75 C 1.710938 -8.726562 1.523438 -8.632812 1.390625 -8.46875 C 1.265625 -8.3125 1.21875 -8.0625 1.25 -7.71875 L 1.359375 -6.671875 L -0.078125 -6.53125 L -0.171875 -7.484375 C -0.253906 -8.265625 -0.128906 -8.882812 0.203125 -9.34375 C 0.546875 -9.800781 1.097656 -10.066406 1.859375 -10.140625 C 2.609375 -10.210938 3.195312 -10.054688 3.625 -9.671875 C 4.050781 -9.296875 4.304688 -8.71875 4.390625 -7.9375 C 4.441406 -7.40625 4.40625 -6.914062 4.28125 -6.46875 C 4.164062 -6.019531 4.003906 -5.609375 3.796875 -5.234375 C 3.597656 -4.859375 3.367188 -4.507812 3.109375 -4.1875 C 2.859375 -3.875 2.632812 -3.570312 2.4375 -3.28125 C 2.238281 -2.988281 2.085938 -2.703125 1.984375 -2.421875 C 1.878906 -2.148438 1.863281 -1.878906 1.9375 -1.609375 L 4.84375 -1.90625 L 4.984375 -0.5 L 0.5625 -0.0625 L 0.4375 -1.265625 C 0.394531 -1.734375 0.429688 -2.15625 0.546875 -2.53125 C 0.660156 -2.90625 0.8125 -3.253906 1 -3.578125 C 1.1875 -3.910156 1.398438 -4.222656 1.640625 -4.515625 C 1.878906 -4.804688 2.09375 -5.109375 2.28125 -5.421875 C 2.476562 -5.734375 2.632812 -6.070312 2.75 -6.4375 C 2.875 -6.8125 2.910156 -7.238281 2.859375 -7.71875 Z M 2.859375 -7.71875 "/></g></g></g><g fill="#146614" fill-opacity="1"><g transform="translate(203.138191, 289.205073)"><g><path d="M 1.515625 -2.578125 C 1.578125 -2.234375 1.691406 -2.003906 1.859375 -1.890625 C 2.035156 -1.773438 2.242188 -1.738281 2.484375 -1.78125 C 2.722656 -1.832031 2.894531 -1.941406 3 -2.109375 C 3.113281 -2.273438 3.140625 -2.53125 3.078125 -2.875 L 2.078125 -8.078125 C 2.003906 -8.429688 1.882812 -8.664062 1.71875 -8.78125 C 1.550781 -8.894531 1.347656 -8.925781 1.109375 -8.875 C 0.867188 -8.832031 0.691406 -8.726562 0.578125 -8.5625 C 0.460938 -8.394531 0.441406 -8.132812 0.515625 -7.78125 Z M -0.984375 -7.390625 C -1.128906 -8.171875 -1.046875 -8.804688 -0.734375 -9.296875 C -0.421875 -9.796875 0.101562 -10.113281 0.84375 -10.25 C 1.59375 -10.394531 2.203125 -10.296875 2.671875 -9.953125 C 3.148438 -9.617188 3.460938 -9.0625 3.609375 -8.28125 L 4.578125 -3.28125 C 4.722656 -2.5 4.640625 -1.859375 4.328125 -1.359375 C 4.015625 -0.867188 3.484375 -0.550781 2.734375 -0.40625 C 1.992188 -0.269531 1.382812 -0.367188 0.90625 -0.703125 C 0.4375 -1.046875 0.128906 -1.609375 -0.015625 -2.390625 Z M -0.984375 -7.390625 "/></g></g></g><g fill="#146614" fill-opacity="1"><g transform="translate(211.555575, 287.447745)"><g><path d="M 1.421875 -8.109375 C 1.304688 -8.523438 1.15625 -8.785156 0.96875 -8.890625 C 0.78125 -9.003906 0.570312 -9.03125 0.34375 -8.96875 C 0.113281 -8.894531 -0.046875 -8.769531 -0.140625 -8.59375 C -0.242188 -8.414062 -0.25 -8.15625 -0.15625 -7.8125 L 0.140625 -6.8125 L -1.25 -6.40625 L -1.515625 -7.3125 C -1.734375 -8.070312 -1.710938 -8.707031 -1.453125 -9.21875 C -1.203125 -9.726562 -0.710938 -10.09375 0.015625 -10.3125 C 0.734375 -10.507812 1.335938 -10.457031 1.828125 -10.15625 C 2.316406 -9.863281 2.671875 -9.335938 2.890625 -8.578125 C 3.035156 -8.066406 3.085938 -7.582031 3.046875 -7.125 C 3.003906 -6.664062 2.914062 -6.234375 2.78125 -5.828125 C 2.65625 -5.421875 2.492188 -5.035156 2.296875 -4.671875 C 2.109375 -4.316406 1.945312 -3.976562 1.8125 -3.65625 C 1.675781 -3.34375 1.582031 -3.039062 1.53125 -2.75 C 1.476562 -2.457031 1.507812 -2.179688 1.625 -1.921875 L 4.421875 -2.734375 L 4.8125 -1.390625 L 0.546875 -0.15625 L 0.21875 -1.3125 C 0.0820312 -1.769531 0.0351562 -2.191406 0.078125 -2.578125 C 0.117188 -2.972656 0.207031 -3.347656 0.34375 -3.703125 C 0.476562 -4.054688 0.632812 -4.394531 0.8125 -4.71875 C 1 -5.050781 1.15625 -5.390625 1.28125 -5.734375 C 1.414062 -6.085938 1.503906 -6.453125 1.546875 -6.828125 C 1.597656 -7.210938 1.554688 -7.640625 1.421875 -8.109375 Z M 1.421875 -8.109375 "/></g></g></g><g fill="#146614" fill-opacity="1"><g transform="translate(219.780111, 284.938242)"><g><path d="M 0.6875 -3.640625 L 1.015625 -2.796875 C 1.140625 -2.472656 1.289062 -2.269531 1.46875 -2.1875 C 1.65625 -2.101562 1.863281 -2.109375 2.09375 -2.203125 C 2.3125 -2.285156 2.460938 -2.421875 2.546875 -2.609375 C 2.640625 -2.796875 2.625 -3.050781 2.5 -3.375 L 1.71875 -5.390625 C 1.59375 -5.722656 1.429688 -5.929688 1.234375 -6.015625 C 1.035156 -6.097656 0.828125 -6.097656 0.609375 -6.015625 C 0.378906 -5.921875 0.226562 -5.78125 0.15625 -5.59375 C 0.0820312 -5.40625 0.109375 -5.144531 0.234375 -4.8125 L 0.34375 -4.53125 L -1.03125 -4 L -2.828125 -9.40625 L 0.953125 -10.875 L 1.453125 -9.59375 L -1.03125 -8.625 L -0.296875 -6.390625 C -0.203125 -6.941406 0.125 -7.328125 0.6875 -7.546875 C 1.226562 -7.753906 1.695312 -7.726562 2.09375 -7.46875 C 2.5 -7.21875 2.832031 -6.75 3.09375 -6.0625 L 3.875 -4.046875 C 4.164062 -3.296875 4.207031 -2.648438 4 -2.109375 C 3.800781 -1.578125 3.347656 -1.171875 2.640625 -0.890625 C 1.941406 -0.617188 1.332031 -0.609375 0.8125 -0.859375 C 0.289062 -1.117188 -0.113281 -1.625 -0.40625 -2.375 L -0.6875 -3.109375 Z M 0.6875 -3.640625 "/></g></g></g><g fill="#146614" fill-opacity="1"><g transform="translate(227.682958, 281.689967)"><g/></g></g><g fill="#146614" fill-opacity="1"><g transform="translate(232.304762, 279.424171)"><g><path d="M -2.28125 -5.125 L 0.1875 -6.484375 L 0.859375 -5.265625 L -1.609375 -3.90625 Z M -2.28125 -5.125 "/></g></g></g><g clip-path="url(#fd5141e9b4)"><path fill="#146614" d="M 188.070312 110.640625 L 189.730469 114.007812 L 193.445312 114.546875 L 190.757812 117.171875 L 191.394531 120.871094 L 188.070312 119.125 L 184.746094 120.871094 L 185.378906 117.171875 L 182.691406 114.546875 L 186.40625 114.007812 Z M 188.070312 110.640625 " fill-opacity="1" fill-rule="nonzero"/><path fill="#146614" d="M 188.042969 110.609375 L 189.707031 113.976562 L 193.421875 114.515625 L 190.734375 117.140625 L 191.367188 120.839844 L 188.042969 119.09375 L 184.71875 120.839844 L 185.355469 117.140625 L 182.664062 114.515625 L 186.382812 113.976562 Z M 188.042969 110.609375 " fill-opacity="1" fill-rule="nonzero"/><path fill="#146614" d="M 188.042969 110.609375 L 189.707031 113.976562 L 193.421875 114.515625 L 190.734375 117.140625 L 191.367188 120.839844 L 188.042969 119.09375 L 184.71875 120.839844 L 185.355469 117.140625 L 182.664062 114.515625 L 186.382812 113.976562 Z M 188.042969 110.609375 " fill-opacity="1" fill-rule="nonzero"/><path fill="#146614" d="M 188.042969 110.609375 L 189.707031 113.976562 L 193.421875 114.515625 L 190.734375 117.140625 L 191.367188 120.839844 L 188.042969 119.09375 L 184.71875 120.839844 L 185.355469 117.140625 L 182.664062 114.515625 L 186.382812 113.976562 Z M 188.042969 110.609375 " fill-opacity="1" fill-rule="nonzero"/></g><g clip-path="url(#b538db8650)"><path fill="#146614" d="M 169.039062 115.777344 L 170.699219 119.144531 L 174.414062 119.683594 L 171.726562 122.304688 L 172.363281 126.007812 L 169.039062 124.257812 L 165.710938 126.007812 L 166.347656 122.304688 L 163.660156 119.683594 L 167.375 119.144531 Z M 169.039062 115.777344 " fill-opacity="1" fill-rule="nonzero"/></g><g clip-path="url(#a05699fb68)"><path fill="#146614" d="M 169.011719 115.742188 L 170.675781 119.109375 L 174.390625 119.652344 L 171.703125 122.273438 L 172.335938 125.972656 L 169.011719 124.226562 L 165.6875 125.972656 L 166.324219 122.273438 L 163.632812 119.652344 L 167.351562 119.109375 Z M 169.011719 115.742188 " fill-opacity="1" fill-rule="nonzero"/><path fill="#146614" d="M 169.011719 115.742188 L 170.675781 119.109375 L 174.390625 119.652344 L 171.703125 122.273438 L 172.335938 125.972656 L 169.011719 124.226562 L 165.6875 125.972656 L 166.324219 122.273438 L 163.632812 119.652344 L 167.351562 119.109375 Z M 169.011719 115.742188 " fill-opacity="1" fill-rule="nonzero"/><path fill="#146614" d="M 169.011719 115.742188 L 170.675781 119.109375 L 174.390625 119.652344 L 171.703125 122.273438 L 172.335938 125.972656 L 169.011719 124.226562 L 165.6875 125.972656 L 166.324219 122.273438 L 163.632812 119.652344 L 167.351562 119.109375 Z M 169.011719 115.742188 " fill-opacity="1" fill-rule="nonzero"/></g><g clip-path="url(#02e05ee883)"><path fill="#146614" d="M 207.101562 115.777344 L 208.761719 119.144531 L 212.480469 119.683594 L 209.789062 122.304688 L 210.425781 126.007812 L 207.101562 124.257812 L 203.777344 126.007812 L 204.410156 122.304688 L 201.722656 119.683594 L 205.4375 119.144531 Z M 207.101562 115.777344 " fill-opacity="1" fill-rule="nonzero"/></g><g clip-path="url(#94e3188713)"><path fill="#146614" d="M 207.078125 115.742188 L 208.738281 119.109375 L 212.453125 119.652344 L 209.765625 122.273438 L 210.398438 125.972656 L 207.078125 124.226562 L 203.753906 125.972656 L 204.386719 122.273438 L 201.699219 119.652344 L 205.414062 119.109375 Z M 207.078125 115.742188 " fill-opacity="1" fill-rule="nonzero"/><path fill="#146614" d="M 207.078125 115.742188 L 208.738281 119.109375 L 212.453125 119.652344 L 209.765625 122.273438 L 210.398438 125.972656 L 207.078125 124.226562 L 203.753906 125.972656 L 204.386719 122.273438 L 201.699219 119.652344 L 205.414062 119.109375 Z M 207.078125 115.742188 " fill-opacity="1" fill-rule="nonzero"/><path fill="#146614" d="M 207.078125 115.742188 L 208.738281 119.109375 L 212.453125 119.652344 L 209.765625 122.273438 L 210.398438 125.972656 L 207.078125 124.226562 L 203.753906 125.972656 L 204.386719 122.273438 L 201.699219 119.652344 L 205.414062 119.109375 Z M 207.078125 115.742188 " fill-opacity="1" fill-rule="nonzero"/></g></svg>