<svg xmlns="http://www.w3.org/2000/svg" xmlns:xlink="http://www.w3.org/1999/xlink" width="500" zoomAndPan="magnify" viewBox="0 0 375 374.999991" height="500" preserveAspectRatio="xMidYMid meet" version="1.0"><defs><g/><clipPath id="1017bf0294"><path d="M 168 124 L 250.890625 124 L 250.890625 160 L 168 160 Z M 168 124 " clip-rule="nonzero"/></clipPath><clipPath id="bdf4562b0f"><path d="M 124.140625 123.574219 L 171 123.574219 L 171 160.324219 L 124.140625 160.324219 Z M 124.140625 123.574219 " clip-rule="nonzero"/></clipPath><clipPath id="6163c986e6"><path d="M 151.175781 219.574219 L 183.425781 219.574219 L 183.425781 289.324219 L 151.175781 289.324219 Z M 151.175781 219.574219 " clip-rule="nonzero"/></clipPath></defs><rect x="-37.5" width="450" fill="#ffffff" y="-37.499999" height="449.999989" fill-opacity="1"/><rect x="-37.5" width="450" fill="#213644" y="-37.499999" height="449.999989" fill-opacity="1"/><g clip-path="url(#1017bf0294)"><path fill="#c6ab7c" d="M 250.855469 159.746094 L 206.097656 124.21875 L 168.6875 124.21875 L 213.449219 159.746094 Z M 250.855469 159.746094 " fill-opacity="1" fill-rule="nonzero"/></g><g clip-path="url(#bdf4562b0f)"><path fill="#c6ab7c" d="M 124.773438 160.300781 C 124.609375 160.300781 124.449219 160.230469 124.335938 160.089844 C 124.148438 159.851562 124.1875 159.503906 124.425781 159.3125 L 169.183594 123.785156 C 169.425781 123.59375 169.777344 123.632812 169.964844 123.871094 C 170.152344 124.113281 170.113281 124.460938 169.875 124.648438 L 125.117188 160.179688 C 125.015625 160.261719 124.894531 160.300781 124.773438 160.300781 Z M 124.773438 160.300781 " fill-opacity="1" fill-rule="nonzero"/></g><path fill="#c6ab7c" d="M 159.617188 151.007812 L 167.015625 151.007812 L 167.015625 158.40625 L 159.617188 158.40625 Z M 159.617188 151.007812 " fill-opacity="1" fill-rule="nonzero"/><path fill="#c6ab7c" d="M 170.359375 151.007812 L 177.757812 151.007812 L 177.757812 158.40625 L 170.359375 158.40625 Z M 170.359375 151.007812 " fill-opacity="1" fill-rule="nonzero"/><path fill="#c6ab7c" d="M 159.617188 140.75 L 167.015625 140.75 L 167.015625 148.148438 L 159.617188 148.148438 Z M 159.617188 140.75 " fill-opacity="1" fill-rule="nonzero"/><path fill="#c6ab7c" d="M 170.359375 140.75 L 177.757812 140.75 L 177.757812 148.148438 L 170.359375 148.148438 Z M 170.359375 140.75 " fill-opacity="1" fill-rule="nonzero"/><path fill="#c6ab7c" d="M 148.828125 140.75 L 141.429688 146.367188 L 141.429688 129.425781 L 148.828125 129.425781 Z M 148.828125 140.75 " fill-opacity="1" fill-rule="nonzero"/><g fill="#c6ab7c" fill-opacity="1"><g transform="translate(118.7202, 208.083164)"><g><path d="M 3.796875 0 L 3.796875 -33.28125 L 6.03125 -33.28125 L 6.03125 -13.359375 L 6.328125 -13.359375 L 27.4375 -33.28125 L 30.234375 -33.28125 L 15.734375 -19.5 L 32.234375 0 L 29.53125 0 L 14.21875 -17.828125 L 13.84375 -17.828125 L 6.03125 -10.453125 L 6.03125 0 Z M 3.796875 0 "/></g></g></g><g fill="#c6ab7c" fill-opacity="1"><g transform="translate(155.804789, 208.083164)"><g><path d="M 3.796875 0 L 3.796875 -33.28125 L 28 -33.28125 L 28 -31.1875 L 5.984375 -31.1875 L 5.984375 -17.921875 L 24.71875 -17.921875 L 24.71875 -16.015625 L 5.984375 -16.015625 L 5.984375 -2.09375 L 28.578125 -2.09375 L 28.578125 0 Z M 3.796875 0 "/></g></g></g><g fill="#c6ab7c" fill-opacity="1"><g transform="translate(190.845028, 208.083164)"><g><path d="M 14.6875 0 L 14.6875 -13.59375 L 0.578125 -33.28125 L 3.234375 -33.28125 L 15.640625 -16.078125 L 15.921875 -16.078125 L 28.4375 -33.28125 L 31.046875 -33.28125 L 16.875 -13.546875 L 16.875 0 Z M 14.6875 0 "/></g></g></g><g fill="#c6ab7c" fill-opacity="1"><g transform="translate(226.31315, 208.083164)"><g><path d="M 15.453125 0.578125 C 14.179688 0.578125 12.726562 0.429688 11.09375 0.140625 C 9.46875 -0.140625 7.84375 -0.535156 6.21875 -1.046875 C 4.601562 -1.554688 3.210938 -2.144531 2.046875 -2.8125 L 2.5625 -4.890625 C 3.863281 -4.097656 5.273438 -3.445312 6.796875 -2.9375 C 8.316406 -2.4375 9.835938 -2.054688 11.359375 -1.796875 C 12.878906 -1.546875 14.289062 -1.421875 15.59375 -1.421875 C 17.5 -1.421875 19.171875 -1.722656 20.609375 -2.328125 C 22.054688 -2.929688 23.191406 -3.769531 24.015625 -4.84375 C 24.835938 -5.925781 25.25 -7.148438 25.25 -8.515625 C 25.25 -9.742188 24.9375 -10.800781 24.3125 -11.6875 C 23.695312 -12.582031 22.644531 -13.363281 21.15625 -14.03125 C 19.664062 -14.695312 17.625 -15.296875 15.03125 -15.828125 C 10.9375 -16.648438 7.96875 -17.75 6.125 -19.125 C 4.289062 -20.507812 3.375 -22.457031 3.375 -24.96875 C 3.375 -26.644531 3.863281 -28.144531 4.84375 -29.46875 C 5.832031 -30.800781 7.203125 -31.859375 8.953125 -32.640625 C 10.710938 -33.421875 12.738281 -33.8125 15.03125 -33.8125 C 17.3125 -33.8125 19.363281 -33.5625 21.1875 -33.0625 C 23.007812 -32.570312 24.503906 -32.007812 25.671875 -31.375 L 25.671875 -29.09375 C 24.535156 -29.726562 23.054688 -30.332031 21.234375 -30.90625 C 19.410156 -31.476562 17.289062 -31.765625 14.875 -31.765625 C 12.945312 -31.765625 11.289062 -31.445312 9.90625 -30.8125 C 8.53125 -30.175781 7.476562 -29.347656 6.75 -28.328125 C 6.019531 -27.316406 5.65625 -26.210938 5.65625 -25.015625 C 5.65625 -23.804688 5.976562 -22.765625 6.625 -21.890625 C 7.28125 -21.023438 8.34375 -20.265625 9.8125 -19.609375 C 11.289062 -18.960938 13.28125 -18.367188 15.78125 -17.828125 C 20.0625 -16.941406 23.085938 -15.789062 24.859375 -14.375 C 26.640625 -12.96875 27.53125 -11.0625 27.53125 -8.65625 C 27.53125 -6.84375 27.046875 -5.25 26.078125 -3.875 C 25.109375 -2.5 23.71875 -1.410156 21.90625 -0.609375 C 20.101562 0.179688 17.953125 0.578125 15.453125 0.578125 Z M 15.453125 0.578125 "/></g></g></g><g clip-path="url(#6163c986e6)"><path fill="#000000" d="M 169.832031 286.800781 L 169.832031 251.460938 C 177.492188 250.242188 183.363281 243.601562 183.363281 235.617188 C 183.363281 226.769531 176.15625 219.574219 167.300781 219.574219 C 158.441406 219.574219 151.238281 226.769531 151.238281 235.617188 C 151.238281 243.609375 157.117188 250.253906 164.785156 251.460938 L 164.785156 269.152344 L 159.910156 269.152344 C 158.515625 269.152344 157.382812 270.28125 157.382812 271.675781 C 157.382812 273.066406 158.515625 274.195312 159.910156 274.195312 L 164.785156 274.195312 L 164.785156 279.238281 L 156.285156 279.238281 C 154.890625 279.238281 153.761719 280.367188 153.761719 281.757812 C 153.761719 283.152344 154.890625 284.28125 156.285156 284.28125 L 164.785156 284.28125 L 164.785156 286.800781 C 164.785156 288.195312 165.914062 289.324219 167.308594 289.324219 C 168.703125 289.324219 169.832031 288.195312 169.832031 286.800781 Z M 156.285156 235.617188 C 156.285156 229.550781 161.226562 224.613281 167.300781 224.613281 C 173.375 224.613281 178.316406 229.550781 178.316406 235.617188 C 178.316406 241.683594 173.375 246.617188 167.300781 246.617188 C 161.226562 246.617188 156.285156 241.683594 156.285156 235.617188 Z M 156.285156 235.617188 " fill-opacity="1" fill-rule="nonzero"/></g><g fill="#c6ab7c" fill-opacity="1"><g transform="translate(113.294419, 252.739174)"><g><path d="M 3.796875 0 L 3.796875 -33.28125 L 5.984375 -33.28125 L 5.984375 -17.453125 L 29.4375 -17.453125 L 29.4375 -33.28125 L 31.625 -33.28125 L 31.625 0 L 29.4375 0 L 29.4375 -15.3125 L 5.984375 -15.3125 L 5.984375 0 Z M 3.796875 0 "/></g></g></g><g fill="#c6ab7c" fill-opacity="1"><g transform="translate(152.528792, 252.739174)"><g/></g></g><g fill="#c6ab7c" fill-opacity="1"><g transform="translate(169.217412, 252.739174)"><g/></g></g><g fill="#c6ab7c" fill-opacity="1"><g transform="translate(185.915508, 252.739174)"><g><path d="M 1.46875 0 L 8.75 -33.8125 L 9.75 -33.8125 L 20.203125 -9.65625 L 20.546875 -9.65625 L 31 -33.8125 L 32 -33.8125 L 39.28125 0 L 37.03125 0 L 31 -27.203125 L 30.671875 -27.203125 L 20.828125 -4.609375 L 19.921875 -4.609375 L 10.03125 -27.203125 L 9.75 -27.203125 L 3.703125 0 Z M 1.46875 0 "/></g></g></g><g fill="#c6ab7c" fill-opacity="1"><g transform="translate(230.511895, 252.739174)"><g><path d="M 3.796875 0 L 3.796875 -33.28125 L 28 -33.28125 L 28 -31.1875 L 5.984375 -31.1875 L 5.984375 -17.921875 L 24.71875 -17.921875 L 24.71875 -16.015625 L 5.984375 -16.015625 L 5.984375 -2.09375 L 28.578125 -2.09375 L 28.578125 0 Z M 3.796875 0 "/></g></g></g></svg>